<svg width="64" height="64" viewBox="0 0 64 64" fill="none" xmlns="http://www.w3.org/2000/svg">
<g clip-path="url(#clip0)">
<path d="M28.5594 12.058V7.75102C28.5594 6.69765 27.7054 5.84365 26.652 5.84365C25.5986 5.84365 24.7446 6.69765 24.7446 7.75102V19.2368V22.8166C24.7446 24.9185 26.4485 26.6224 28.5504 26.6224H35.3072C36.4324 26.6224 37.4997 26.1245 38.2229 25.2626L45.7149 16.3321C46.3289 15.6003 46.2391 14.5106 45.5139 13.889C44.8357 13.3078 43.8279 13.3333 43.18 13.9481L40.7279 16.2756C40.49 16.5015 40.0972 16.3345 40.0947 16.0065L40.0039 3.94552C40.0039 2.89215 39.1499 2.03815 38.0965 2.03815C37.0431 2.03815 36.1891 2.89215 36.1891 3.94552V9.94477L28.5594 12.058Z" fill="#FFCEBF"/>
<path d="M36.189 12.058V1.90725C36.189 0.853878 35.335 -0.00012207 34.2815 -0.00012207C33.2281 -0.00012207 32.3741 0.853878 32.3741 1.90725V11.8051L36.189 12.058Z" fill="#FFCEBF"/>
<path d="M34.4351 0.00599286C34.0295 -0.0262571 33.6496 0.0707429 33.328 0.257118C33.8976 0.586993 34.2818 1.20162 34.2818 1.90724V11.039C34.2818 11.5412 34.6713 11.9574 35.1724 11.9906C35.7228 12.0271 36.1891 11.5905 36.1891 11.039V1.96024C36.1891 0.956618 35.4356 0.0854929 34.4351 0.00599286Z" fill="#FFB09E"/>
<path d="M32.3742 12.058V3.94528C32.3742 2.8919 31.5202 2.0379 30.4668 2.0379C29.4134 2.0379 28.5594 2.8919 28.5594 3.94528V13.0153L32.3742 12.058Z" fill="#FFCEBF"/>
<path d="M30.6203 2.04402C30.2147 2.01177 29.8348 2.10877 29.5132 2.29514C30.0828 2.62502 30.4669 3.23964 30.4669 3.94527V11.8084C30.4669 12.3106 30.8564 12.7268 31.3576 12.76C31.9079 12.7965 32.3743 12.3599 32.3743 11.8084V3.99827C32.3743 2.99464 31.6208 2.12352 30.6203 2.04402Z" fill="#FFB09E"/>
<path d="M26.8054 5.84797C26.3997 5.81572 26.0199 5.91272 25.6982 6.0991C26.2679 6.42897 26.652 7.0436 26.652 7.74922V11.8066C26.652 12.3088 27.0415 12.725 27.5426 12.7582C28.093 12.7947 28.5594 12.3581 28.5594 11.8066V7.80235C28.5592 6.79872 27.8059 5.9276 26.8054 5.84797Z" fill="#FFB09E"/>
<path d="M24.7446 62.7313V29.1595C24.7446 27.7583 25.8805 26.6224 27.2818 26.6224H36.7728C38.174 26.6224 39.3099 27.7583 39.3099 29.1595V62.7313C39.3099 63.4319 38.7419 63.9999 38.0413 63.9999H26.0131C25.3126 63.9999 24.7446 63.4319 24.7446 62.7313Z" fill="#FE646F"/>
<path d="M24.7446 31.2711H39.3099V33.174H24.7446V31.2711Z" fill="#FD4755"/>
<path d="M43.5172 62.7313V47.9446C43.5172 46.6128 44.597 45.533 45.9288 45.533H54.95C56.2818 45.533 57.3616 46.6128 57.3616 47.9446V62.7313C57.3616 63.4319 56.7936 63.9999 56.093 63.9999H44.7858C44.0852 63.9999 43.5172 63.4319 43.5172 62.7313Z" fill="#8AC9FE"/>
<path d="M43.5172 49.9047H57.3615V51.8075H43.5172V49.9047Z" fill="#60B7FF"/>
<path d="M16.8568 31.6898V27.596C16.8568 26.5948 17.6685 25.783 18.6698 25.783C19.671 25.783 20.4828 26.5948 20.4828 27.596V38.5131V41.9158C20.4828 43.9135 18.8633 45.5331 16.8654 45.5331H10.4429C9.37352 45.5331 8.35889 45.06 7.67164 44.2406L0.550519 35.7521C-0.0329806 35.0565 0.0521445 34.0208 0.741519 33.4299C1.38614 32.8774 2.34402 32.9017 2.95977 33.4862L5.25014 35.6602C5.49164 35.8894 5.89014 35.7199 5.89264 35.387L5.97864 23.9786C5.97864 22.9774 6.79039 22.1656 7.79164 22.1656C8.79289 22.1656 9.60464 22.9774 9.60464 23.9786V29.6809L16.8568 31.6898Z" fill="#FFCEBF"/>
<path d="M9.60474 31.6898V22.0415C9.60474 21.0403 10.4165 20.2285 11.4177 20.2285C12.419 20.2285 13.2307 21.0403 13.2307 22.0415V31.6378L9.60474 31.6898Z" fill="#FFCEBF"/>
<path d="M13.2307 31.6898V23.9786C13.2307 22.9774 14.0425 22.1656 15.0437 22.1656C16.045 22.1656 16.8567 22.9774 16.8567 23.9786V32.7253L13.2307 31.6898Z" fill="#FFCEBF"/>
<path d="M15.0439 22.1656C14.7504 22.1656 14.4741 22.2369 14.2289 22.3608C14.8204 22.6594 15.2269 23.2708 15.2269 23.9787V31.645C15.2269 32.0089 15.4681 32.3288 15.818 32.4287C16.3386 32.5773 16.8568 32.1864 16.8568 31.645V23.9787C16.8569 22.9774 16.0451 22.1656 15.0439 22.1656Z" fill="#FFB09E"/>
<path d="M11.4177 20.2285C11.1242 20.2285 10.8479 20.2998 10.6027 20.4236C11.1942 20.7223 11.6007 21.3336 11.6007 22.0415V30.9764C11.6007 31.3403 11.8419 31.6601 12.1918 31.76C12.7124 31.9086 13.2305 31.5178 13.2305 30.9764V22.0415C13.2307 21.0403 12.4189 20.2285 11.4177 20.2285Z" fill="#FFB09E"/>
<path d="M7.79169 22.1656C7.49819 22.1656 7.22193 22.2369 6.97668 22.3608C7.56819 22.6594 7.97469 23.2708 7.97469 23.9787V31.645C7.97469 32.0089 8.21594 32.3288 8.56581 32.4287C9.08644 32.5773 9.60456 32.1864 9.60456 31.645V23.9787C9.60469 22.9774 8.79306 22.1656 7.79169 22.1656Z" fill="#FFB09E"/>
<path d="M20.4828 62.7313V47.9446C20.4828 46.6128 19.4031 45.533 18.0712 45.533H9.05005C7.71818 45.533 6.63843 46.6128 6.63843 47.9446V62.7313C6.63843 63.4319 7.20643 63.9999 7.90705 63.9999H19.2142C19.9148 63.9999 20.4828 63.4319 20.4828 62.7313Z" fill="#FEE45A"/>
<path d="M6.63855 49.9047H20.4828V51.8075H6.63855V49.9047Z" fill="#FED402"/>
<path d="M47.1432 31.6898V27.596C47.1432 26.5948 46.3315 25.783 45.3302 25.783C44.329 25.783 43.5172 26.5948 43.5172 27.596V38.5131V41.9158C43.5172 43.9135 45.1367 45.5331 47.1346 45.5331H53.557C54.6263 45.5331 55.641 45.06 56.3282 44.2406L63.4493 35.7523C64.0328 35.0566 63.9477 34.0209 63.2583 33.43C62.6137 32.8775 61.6558 32.9018 61.0401 33.4863L58.7497 35.6603C58.5082 35.8895 58.1097 35.72 58.1071 35.3871L58.0211 23.9788C58.0211 22.9775 57.2093 22.1658 56.2081 22.1658C55.2068 22.1658 54.3951 22.9775 54.3951 23.9788V29.681L47.1432 31.6898Z" fill="#FFCEBF"/>
<path d="M54.3953 31.6898V22.0415C54.3953 21.0403 53.5835 20.2285 52.5823 20.2285C51.581 20.2285 50.7693 21.0403 50.7693 22.0415V31.6378L54.3953 31.6898Z" fill="#FFCEBF"/>
<path d="M50.7692 31.6898V23.9786C50.7692 22.9774 49.9574 22.1656 48.9562 22.1656C47.9549 22.1656 47.1432 22.9774 47.1432 23.9786V32.7253L50.7692 31.6898Z" fill="#FFCEBF"/>
<path d="M48.9562 22.1656C48.6627 22.1656 48.3865 22.2369 48.1412 22.3608C48.7327 22.6594 49.1392 23.2708 49.1392 23.9787V31.645C49.1392 32.0089 49.3805 32.3288 49.7304 32.4287C50.251 32.5773 50.7691 32.1864 50.7691 31.645V23.9787C50.7692 22.9774 49.9575 22.1656 48.9562 22.1656Z" fill="#FFB09E"/>
<path d="M52.5822 20.2285C52.2887 20.2285 52.0125 20.2998 51.7672 20.4236C52.3587 20.7223 52.7652 21.3336 52.7652 22.0415V30.9764C52.7652 31.3403 53.0065 31.6601 53.3563 31.76C53.877 31.9086 54.3951 31.5178 54.3951 30.9764V22.0415C54.3952 21.0403 53.5835 20.2285 52.5822 20.2285Z" fill="#FFB09E"/>
<path d="M56.2108 22.1656C55.9173 22.1656 55.641 22.2369 55.3958 22.3608C55.9873 22.6594 56.3938 23.2708 56.3938 23.9787V31.645C56.3938 32.0089 56.635 32.3288 56.9849 32.4287C57.5055 32.5773 58.0236 32.1864 58.0236 31.645V23.9787C58.0238 22.9774 57.2121 22.1656 56.2108 22.1656Z" fill="#FFB09E"/>
</g>
<defs>
<clipPath id="clip0">
<rect width="64" height="64" fill="white" transform="translate(0 -0.00012207)"/>
</clipPath>
</defs>
</svg>
