<svg width="64" height="64" viewBox="0 0 64 64" fill="none" xmlns="http://www.w3.org/2000/svg">
<path d="M54.9956 60.8223L63.0508 63.0508L60.8228 54.9956C62.832 51.9028 64 48.2129 64 44.25C64 33.3423 55.1577 24.5 44.25 24.5C33.3423 24.5 24.5 33.3423 24.5 44.25C24.5 55.1577 33.3423 64 44.25 64C48.2129 64 51.9028 62.832 54.9956 60.8223Z" fill="#2A51FF"/>
<path d="M24.4375 0L14.4375 24.4375L24.4375 48.875C37.9126 48.875 48.875 37.9126 48.875 24.4375C48.875 10.9624 37.9126 0 24.4375 0Z" fill="#10BEFF"/>
<path d="M0 24.4375C0 28.8291 1.16895 33.105 3.38867 36.8589L0.0898438 48.7847L12.0161 45.4863C15.77 47.7061 20.0459 48.875 24.4375 48.875V0C10.9624 0 0 10.9624 0 24.4375Z" fill="#5AECFF"/>
<path d="M22.5625 33.875H26.3125V37.625H22.5625V33.875Z" fill="white"/>
<path d="M22.5625 25.5493V30.125H24.4375L25.6875 26.979L24.4375 23.833L22.5625 25.5493Z" fill="white"/>
<path d="M16.9375 18.75H20.6875C20.6875 16.6821 22.3696 15 24.4375 15L25.6875 13.125L24.4375 11.25C20.3018 11.25 16.9375 14.6143 16.9375 18.75Z" fill="white"/>
<path d="M24.4375 11.25V15C26.5054 15 28.1875 16.6821 28.1875 18.75C28.1875 19.8149 27.7539 20.7979 26.9668 21.5181L24.4375 23.833V30.125H26.3125V27.2007L29.4985 24.2847C31.0483 22.8662 31.9375 20.8491 31.9375 18.75C31.9375 14.6143 28.5732 11.25 24.4375 11.25Z" fill="white"/>
</svg>
