<svg width="204" height="105" viewBox="0 0 204 105" fill="none" xmlns="http://www.w3.org/2000/svg">
<path d="M0 78C0 73.5817 3.58172 70 8 70H196C200.418 70 204 73.5817 204 78C204 82.4183 200.418 86 196 86H8C3.58172 86 0 82.4183 0 78Z" fill="url(#paint0_linear)"/>
<g filter="url(#filter0_d)">
<path d="M30.48 42C41.0933 37.84 46.4 33.9467 46.4 30.32C46.4 28.24 45.0933 26.6667 42.48 25.6C39.8667 24.48 36.4267 23.4667 32.16 22.56C31.1467 22.4 29.9733 22.1333 28.64 21.76L26.4 21.04C24.64 29.9467 23.2533 37.76 22.24 44.48C24.16 44.2667 26.9067 43.44 30.48 42ZM46.56 20.32C49.0133 21.2267 50.88 22.4 52.16 23.84C53.4933 25.28 54.16 26.8533 54.16 28.56C54.16 31.0133 52.8267 33.4933 50.16 36C46.5867 39.36 42.2933 42.2667 37.28 44.72C32.32 47.12 27.36 48.7467 22.4 49.6C21.9733 49.7067 21.6533 49.76 21.44 49.76C20.1067 58.6667 19.12 66.7733 18.48 74.08C18.3733 75.0933 17.6267 75.9733 16.24 76.72C14.8533 77.4667 13.4667 77.84 12.08 77.84C11.3333 77.84 10.72 77.68 10.24 77.36C9.76 77.04 9.54667 76.56 9.6 75.92C10.4533 67.3867 11.5467 58.4267 12.88 49.04C10.3733 47.9733 9.12 46.08 9.12 43.36C9.12 42.1867 9.38667 40.8267 9.92 39.28C10.1867 38.5867 10.8267 38 11.84 37.52C12.8533 36.9867 13.8933 36.6667 14.96 36.56C15.8667 31.3333 17.1733 25.04 18.88 17.68C16.2667 15.8133 14.8533 13.44 14.64 10.56C14.5867 9.6 15.2 8.74666 16.48 8C17.76 7.2 19.0667 6.8 20.4 6.8C22.2133 6.8 23.1467 7.46666 23.2 8.8C23.2533 9.97333 23.7067 11.0667 24.56 12.08C24.8267 12.0267 25.2267 12 25.76 12C27.4667 12 28.2133 12.5867 28 13.76L27.76 14.56C29.36 15.4667 31.2 16.24 33.28 16.88C35.36 17.4667 37.84 18.08 40.72 18.72C43.7067 19.4133 45.6533 19.9467 46.56 20.32Z" fill="#7766E2"/>
<path d="M70.1074 41.856C70.406 41.344 71.1314 40.8107 72.2834 40.256C73.478 39.6587 74.5234 39.36 75.4194 39.36C76.6994 39.36 77.254 39.9573 77.0834 41.152C77.0834 41.28 77.062 41.472 77.0194 41.728C76.9767 41.984 76.934 42.176 76.8914 42.304V42.432C76.4647 45.2907 75.974 48.7253 75.4194 52.736C74.9074 56.704 74.502 59.8187 74.2034 62.08L72.5394 74.368C72.4114 75.2213 71.7927 75.9467 70.6834 76.544C69.6167 77.1413 68.5287 77.44 67.4194 77.44C66.7367 77.44 66.182 77.2907 65.7554 76.992C65.3714 76.6933 65.222 76.2667 65.3074 75.712C65.7767 72.0427 66.5234 66.5387 67.5474 59.2L66.9074 60.288C65.798 62.1653 64.966 63.5307 64.4114 64.384C62.4914 67.3707 60.4434 69.888 58.2674 71.936C56.134 73.984 53.6807 75.3493 50.9074 76.032C49.8407 76.288 48.8807 76.416 48.0274 76.416C44.0167 76.416 42.0114 73.6853 42.0114 68.224C42.0114 65.664 42.4167 62.7627 43.2274 59.52C44.038 56.2347 44.9554 53.1627 45.9794 50.304C47.046 47.4453 47.9634 45.2693 48.7314 43.776C49.03 43.1787 49.6914 42.6667 50.7154 42.24C51.782 41.7707 52.806 41.536 53.7874 41.536C54.3847 41.536 54.854 41.6427 55.1954 41.856C55.5794 42.0693 55.7714 42.368 55.7714 42.752C55.7714 42.9227 55.7074 43.1787 55.5794 43.52C52.7207 49.792 50.8647 55.488 50.0114 60.608L49.6914 62.336C49.35 64.128 49.1794 65.4933 49.1794 66.432C49.1794 66.9013 49.2007 67.2427 49.2434 67.456C49.7554 69.632 50.5874 70.656 51.7394 70.528C52.2087 70.4853 52.7634 70.08 53.4034 69.312C54.086 68.544 54.5127 68.0747 54.6834 67.904C56.774 65.472 58.6727 62.8267 60.3794 59.968C62.086 57.0667 64.07 53.44 66.3314 49.088C67.4834 46.7413 68.742 44.3307 70.1074 41.856ZM105.582 49.472C107.075 50.4533 107.822 52.0747 107.822 54.336C107.822 55.744 107.545 57.408 106.99 59.328L106.414 61.504C105.774 63.808 105.134 66.176 104.494 68.608C103.897 71.04 103.406 73.3013 103.022 75.392C102.894 76.16 102.318 76.8213 101.294 77.376C100.313 77.9307 99.3099 78.208 98.2859 78.208C97.6459 78.208 97.1552 78.08 96.8139 77.824C96.4725 77.568 96.3445 77.184 96.4299 76.672C96.9419 73.984 97.9232 69.9947 99.3739 64.704L100.782 59.392C101.209 57.6853 101.422 56.448 101.422 55.68C101.422 55.0827 101.315 54.6133 101.102 54.272C100.59 53.504 99.7579 53.12 98.6059 53.12C97.6245 53.12 96.3659 53.3973 94.8299 53.952C92.9525 54.5067 90.5632 55.5947 87.6619 57.216L86.5099 73.472C86.4672 74.2827 85.9125 74.9867 84.8459 75.584C83.8219 76.1813 82.7765 76.48 81.7099 76.48C81.0272 76.48 80.4939 76.352 80.1099 76.096C79.7685 75.7973 79.6192 75.3707 79.6619 74.816C80.1739 68.7573 80.5365 64.2133 80.7499 61.184C80.1099 61.1413 79.5765 61.0133 79.1499 60.8C78.7232 60.5867 78.5099 60.288 78.5099 59.904C78.5099 59.3493 78.8512 58.752 79.5339 58.112C79.9179 57.8133 80.4512 57.3227 81.1339 56.64C82.0299 45.5467 82.7765 35.456 83.3739 26.368C83.4165 25.6 83.9499 24.9387 84.9739 24.384C86.0405 23.7867 87.0859 23.488 88.1099 23.488C88.7499 23.488 89.2405 23.616 89.5819 23.872C89.9659 24.128 90.1365 24.512 90.0939 25.024C89.4112 33.3867 88.7712 41.7707 88.1739 50.176C93.0805 45.6533 97.8379 41.5787 102.446 37.952C102.83 37.6533 103.299 37.44 103.854 37.312C104.451 37.1413 105.027 37.056 105.582 37.056C106.222 37.056 106.734 37.1627 107.118 37.376C107.545 37.5467 107.758 37.824 107.758 38.208C107.758 38.72 107.417 39.2533 106.734 39.808L100.398 45.504L96.3019 49.216C98.4352 48.6187 100.185 48.32 101.55 48.32C103.171 48.32 104.515 48.704 105.582 49.472ZM119.904 68.096C119.819 68.608 119.776 68.9707 119.776 69.184C119.776 70.8907 120.608 71.744 122.272 71.744C123.253 71.744 124.448 71.4667 125.856 70.912C127.136 70.4 129.504 69.312 132.96 67.648C133.045 66.5813 133.131 65.5573 133.216 64.576C133.344 63.552 133.451 62.6347 133.536 61.824L133.984 57.408C131.04 58.816 128.843 59.9253 127.392 60.736C125.259 61.9733 123.552 63.1467 122.272 64.256C120.992 65.3227 120.203 66.6027 119.904 68.096ZM136.544 37.952C138.464 37.952 139.744 38.4427 140.384 39.424C141.067 40.3627 141.408 41.7493 141.408 43.584L141.344 45.376C141.173 48.4907 140.789 53.056 140.192 59.072C140.064 59.9253 139.915 61.3547 139.744 63.36C139.573 64.5973 139.424 65.6 139.296 66.368C139.765 66.624 140 66.9653 140 67.392C140 67.6907 139.851 68.1387 139.552 68.736L139.296 69.056L138.912 69.44C138.613 71.616 138.464 73.472 138.464 75.008C139.061 75.3493 139.36 75.7547 139.36 76.224C139.36 76.9493 138.827 77.7173 137.76 78.528C137.461 78.7413 137.12 78.9547 136.736 79.168C136.437 79.3387 136.011 79.488 135.456 79.616C134.944 79.744 134.432 79.808 133.92 79.808C132.341 79.808 131.616 79.232 131.744 78.08L132.256 72.704C126.539 75.4347 122.144 76.8 119.072 76.8C115.189 76.8 113.248 74.7093 113.248 70.528C113.248 66.5173 115.317 63.104 119.456 60.288C123.637 57.472 128.629 54.9333 134.432 52.672C134.603 51.008 134.731 49.3227 134.816 47.616C134.816 47.2747 134.837 46.848 134.88 46.336C134.923 45.824 134.944 45.248 134.944 44.608C134.944 43.7973 134.88 43.264 134.752 43.008L134.56 42.752H134.496C133.856 42.752 132.661 43.6267 130.912 45.376C129.333 46.912 127.371 49.216 125.024 52.288C124.683 52.7573 124.107 53.1413 123.296 53.44C122.528 53.7387 121.739 53.888 120.928 53.888C120.331 53.888 119.819 53.7813 119.392 53.568C119.008 53.3547 118.816 53.0347 118.816 52.608C118.816 52.2667 118.987 51.8187 119.328 51.264C125.216 42.3893 130.955 37.952 136.544 37.952ZM164.125 37.76C165.362 37.248 166.493 36.992 167.517 36.992C168.626 36.992 169.522 37.2907 170.205 37.888C170.888 38.4427 171.229 39.36 171.229 40.64C171.229 41.8773 171.037 43.2213 170.653 44.672C170.269 46.1227 169.736 47.8293 169.053 49.792L168.157 52.48C167.901 53.2907 167.24 53.9733 166.173 54.528C165.106 55.0827 164.082 55.36 163.101 55.36C162.461 55.36 161.97 55.232 161.629 54.976C161.33 54.6773 161.266 54.2507 161.437 53.696C162.205 51.3067 162.973 48.6613 163.741 45.76C163.912 44.4373 164.04 43.5627 164.125 43.136L163.869 43.392C160.584 46.208 157.576 49.7493 154.845 54.016C153.608 60.8 152.84 67.6053 152.541 74.432C152.498 75.2427 151.944 75.968 150.877 76.608C149.853 77.2053 148.786 77.504 147.677 77.504C147.037 77.504 146.504 77.3547 146.077 77.056C145.65 76.7573 145.458 76.3093 145.501 75.712C145.842 69.568 146.504 63.5947 147.485 57.792C147.058 57.4933 146.845 57.152 146.845 56.768C146.845 56.512 146.93 56.2347 147.101 55.936L148.061 54.336C149 49.4293 150.152 44.5013 151.517 39.552C151.73 38.784 152.392 38.1227 153.501 37.568C154.653 36.9707 155.741 36.672 156.765 36.672C157.405 36.672 157.896 36.8 158.237 37.056C158.578 37.312 158.664 37.696 158.493 38.208C157.81 40.5973 157.384 42.176 157.213 42.944C159.773 40.384 162.077 38.656 164.125 37.76ZM173.904 68.096C173.819 68.608 173.776 68.9707 173.776 69.184C173.776 70.8907 174.608 71.744 176.272 71.744C177.253 71.744 178.448 71.4667 179.856 70.912C181.136 70.4 183.504 69.312 186.96 67.648C187.045 66.5813 187.131 65.5573 187.216 64.576C187.344 63.552 187.451 62.6347 187.536 61.824L187.984 57.408C185.04 58.816 182.843 59.9253 181.392 60.736C179.259 61.9733 177.552 63.1467 176.272 64.256C174.992 65.3227 174.203 66.6027 173.904 68.096ZM190.544 37.952C192.464 37.952 193.744 38.4427 194.384 39.424C195.067 40.3627 195.408 41.7493 195.408 43.584L195.344 45.376C195.173 48.4907 194.789 53.056 194.192 59.072C194.064 59.9253 193.915 61.3547 193.744 63.36C193.573 64.5973 193.424 65.6 193.296 66.368C193.765 66.624 194 66.9653 194 67.392C194 67.6907 193.851 68.1387 193.552 68.736L193.296 69.056L192.912 69.44C192.613 71.616 192.464 73.472 192.464 75.008C193.061 75.3493 193.36 75.7547 193.36 76.224C193.36 76.9493 192.827 77.7173 191.76 78.528C191.461 78.7413 191.12 78.9547 190.736 79.168C190.437 79.3387 190.011 79.488 189.456 79.616C188.944 79.744 188.432 79.808 187.92 79.808C186.341 79.808 185.616 79.232 185.744 78.08L186.256 72.704C180.539 75.4347 176.144 76.8 173.072 76.8C169.189 76.8 167.248 74.7093 167.248 70.528C167.248 66.5173 169.317 63.104 173.456 60.288C177.637 57.472 182.629 54.9333 188.432 52.672C188.603 51.008 188.731 49.3227 188.816 47.616C188.816 47.2747 188.837 46.848 188.88 46.336C188.923 45.824 188.944 45.248 188.944 44.608C188.944 43.7973 188.88 43.264 188.752 43.008L188.56 42.752H188.496C187.856 42.752 186.661 43.6267 184.912 45.376C183.333 46.912 181.371 49.216 179.024 52.288C178.683 52.7573 178.107 53.1413 177.296 53.44C176.528 53.7387 175.739 53.888 174.928 53.888C174.331 53.888 173.819 53.7813 173.392 53.568C173.008 53.3547 172.816 53.0347 172.816 52.608C172.816 52.2667 172.987 51.8187 173.328 51.264C179.216 42.3893 184.955 37.952 190.544 37.952Z" fill="white"/>
<path d="M30.48 42L30.2975 41.5345L30.2931 41.5362L30.48 42ZM42.48 25.6L42.283 26.0596L42.2911 26.0629L42.48 25.6ZM32.16 22.56L32.2639 22.0709L32.251 22.0682L32.238 22.0661L32.16 22.56ZM28.64 21.76L28.487 22.236L28.496 22.2389L28.5052 22.2415L28.64 21.76ZM26.4 21.04L26.553 20.564L26.0184 20.3921L25.9095 20.9431L26.4 21.04ZM22.24 44.48L21.7456 44.4054L21.6486 45.0488L22.2952 44.9769L22.24 44.48ZM46.56 20.32L46.3696 20.7823L46.3781 20.7858L46.3867 20.789L46.56 20.32ZM52.16 23.84L51.7862 24.1722L51.7931 24.1797L52.16 23.84ZM50.16 36L49.8175 35.6357L49.8175 35.6357L50.16 36ZM37.28 44.72L37.4978 45.1701L37.4998 45.1691L37.28 44.72ZM22.4 49.6L22.3152 49.1072L22.2968 49.1104L22.2787 49.1149L22.4 49.6ZM21.44 49.76V49.26H21.0093L20.9455 49.686L21.44 49.76ZM18.48 74.08L18.9773 74.1323L18.9781 74.1236L18.48 74.08ZM16.24 76.72L16.4771 77.1602L16.24 76.72ZM10.24 77.36L9.96265 77.776L10.24 77.36ZM9.6 75.92L9.10241 75.8702L9.10173 75.8785L9.6 75.92ZM12.88 49.04L13.375 49.1103L13.429 48.7302L13.0758 48.5799L12.88 49.04ZM9.92 39.28L9.45333 39.1005L9.45018 39.1087L9.44731 39.117L9.92 39.28ZM11.84 37.52L12.054 37.9719L12.0636 37.9674L12.0729 37.9625L11.84 37.52ZM14.96 36.56L15.0098 37.0575L15.3877 37.0197L15.4526 36.6455L14.96 36.56ZM18.88 17.68L19.3671 17.7929L19.4426 17.4674L19.1706 17.2731L18.88 17.68ZM14.64 10.56L14.1407 10.5877L14.1414 10.5969L14.64 10.56ZM16.48 8L16.7319 8.43189L16.7385 8.42804L16.745 8.424L16.48 8ZM23.2 8.8L22.7004 8.81998L22.7005 8.8227L23.2 8.8ZM24.56 12.08L24.1775 12.4021L24.368 12.6283L24.6581 12.5703L24.56 12.08ZM28 13.76L28.4789 13.9037L28.4869 13.8769L28.4919 13.8494L28 13.76ZM27.76 14.56L27.2811 14.4163L27.1665 14.7984L27.5135 14.995L27.76 14.56ZM33.28 16.88L33.1329 17.358L33.1443 17.3612L33.28 16.88ZM40.72 18.72L40.8331 18.2329L40.8285 18.2319L40.72 18.72ZM30.6625 42.4655C35.9847 40.3794 40.0111 38.3474 42.7158 36.3631C45.3975 34.3957 46.9 32.3854 46.9 30.32H45.9C45.9 31.8813 44.7492 33.631 42.1242 35.5569C39.5222 37.4659 35.5887 39.4606 30.2975 41.5345L30.6625 42.4655ZM46.9 30.32C46.9 29.1655 46.5339 28.1386 45.8046 27.2605C45.0827 26.3913 44.0242 25.6902 42.6689 25.1371L42.2911 26.0629C43.5491 26.5764 44.4506 27.1954 45.0354 27.8994C45.6128 28.5947 45.9 29.3945 45.9 30.32H46.9ZM42.677 25.1404C40.0223 24.0027 36.5475 22.9812 32.2639 22.0709L32.0561 23.0491C36.3058 23.9521 39.7111 24.9573 42.283 26.0596L42.677 25.1404ZM32.238 22.0661C31.2491 21.91 30.0955 21.6483 28.7748 21.2785L28.5052 22.2415C29.8512 22.6184 31.0442 22.89 32.082 23.0539L32.238 22.0661ZM28.793 21.284L26.553 20.564L26.247 21.516L28.487 22.236L28.793 21.284ZM25.9095 20.9431C24.1485 29.8549 22.7604 37.676 21.7456 44.4054L22.7344 44.5546C23.7463 37.844 25.1315 30.0385 26.8905 21.1369L25.9095 20.9431ZM22.2952 44.9769C24.2858 44.7558 27.0845 43.9074 30.6669 42.4638L30.2931 41.5362C26.7289 42.9726 24.0342 43.7776 22.1848 43.9831L22.2952 44.9769ZM46.3867 20.789C48.7893 21.6769 50.5768 22.8115 51.7863 24.1722L52.5337 23.5078C51.1832 21.9885 49.2374 20.7764 46.7333 19.851L46.3867 20.789ZM51.7931 24.1797C53.0546 25.5421 53.66 26.9982 53.66 28.56H54.66C54.66 26.7085 53.932 25.0179 52.5269 23.5003L51.7931 24.1797ZM53.66 28.56C53.66 30.8197 52.4331 33.177 49.8175 35.6357L50.5025 36.3643C53.2202 33.8096 54.66 31.207 54.66 28.56H53.66ZM49.8175 35.6357C46.2852 38.9571 42.0347 41.8366 37.0602 44.2709L37.4998 45.1691C42.552 42.6968 46.8881 39.7629 50.5025 36.3643L49.8175 35.6357ZM37.0622 44.2699C32.1404 46.6515 27.225 48.2626 22.3152 49.1072L22.4848 50.0928C27.495 49.2308 32.4996 47.5885 37.4978 45.1701L37.0622 44.2699ZM22.2787 49.1149C21.8591 49.2198 21.5888 49.26 21.44 49.26V50.26C21.7179 50.26 22.0875 50.1935 22.5213 50.0851L22.2787 49.1149ZM20.9455 49.686C19.611 58.6006 18.623 66.7176 17.9819 74.0364L18.9781 74.1236C19.617 66.8291 20.6023 58.7328 21.9345 49.834L20.9455 49.686ZM17.9827 74.0277C17.9013 74.8013 17.3268 75.5669 16.003 76.2798L16.4771 77.1602C17.9266 76.3797 18.8454 75.3854 18.9773 74.1323L17.9827 74.0277ZM16.003 76.2798C14.6791 76.9926 13.3733 77.34 12.08 77.34V78.34C13.5601 78.34 15.0275 77.9407 16.4771 77.1602L16.003 76.2798ZM12.08 77.34C11.4033 77.34 10.8942 77.1952 10.5174 76.944L9.96265 77.776C10.5458 78.1648 11.2634 78.34 12.08 78.34V77.34ZM10.5174 76.944C10.2086 76.7381 10.058 76.4452 10.0983 75.9615L9.10173 75.8785C9.03537 76.6748 9.31143 77.3419 9.96265 77.776L10.5174 76.944ZM10.0975 75.9697C10.9501 67.444 12.0426 58.4908 13.375 49.1103L12.385 48.9697C11.0508 58.3625 9.95657 67.3294 9.10248 75.8702L10.0975 75.9697ZM13.0758 48.5799C11.8943 48.0772 11.0395 47.3939 10.4769 46.544C9.91439 45.6942 9.62 44.6416 9.62 43.36H8.62C8.62 44.7984 8.95228 46.0525 9.64307 47.096C10.3338 48.1395 11.359 48.9361 12.6842 49.5001L13.0758 48.5799ZM9.62 43.36C9.62 42.2593 9.87086 40.9563 10.3927 39.443L9.44731 39.117C8.90248 40.697 8.62 42.1141 8.62 43.36H9.62ZM10.3867 39.4595C10.5885 38.9348 11.0989 38.4243 12.054 37.9719L11.626 37.0681C10.5544 37.5757 9.78485 38.2385 9.45333 39.1005L10.3867 39.4595ZM12.0729 37.9625C13.0332 37.457 14.0114 37.1574 15.0098 37.0575L14.9102 36.0625C13.7753 36.176 12.6735 36.5163 11.6071 37.0775L12.0729 37.9625ZM15.4526 36.6455C16.3572 31.4309 17.6617 25.1473 19.3671 17.7929L18.3929 17.5671C16.6849 24.9327 15.3761 31.2357 14.4674 36.4745L15.4526 36.6455ZM19.1706 17.2731C16.6628 15.4818 15.3397 13.2372 15.1386 10.5231L14.1414 10.5969C14.367 13.6428 15.8705 16.1448 18.5894 18.0869L19.1706 17.2731ZM15.1392 10.5323C15.1013 9.8499 15.5176 9.14022 16.7319 8.43189L16.2281 7.56811C14.8824 8.3531 14.072 9.35009 14.1408 10.5877L15.1392 10.5323ZM16.745 8.424C17.9563 7.66693 19.1723 7.3 20.4 7.3V6.3C18.961 6.3 17.5637 6.73306 16.215 7.576L16.745 8.424ZM20.4 7.3C21.2585 7.3 21.8239 7.46009 22.1694 7.70686C22.4889 7.93509 22.6788 8.27919 22.7004 8.81998L23.6996 8.78001C23.6679 7.98747 23.3644 7.33157 22.7506 6.89313C22.1628 6.47324 21.3548 6.3 20.4 6.3V7.3ZM22.7005 8.8227C22.7595 10.1199 23.2628 11.3159 24.1775 12.4021L24.9425 11.7579C24.1505 10.8175 23.7472 9.82676 23.6995 8.77729L22.7005 8.8227ZM24.6581 12.5703C24.8748 12.5269 25.2346 12.5 25.76 12.5V11.5C25.2188 11.5 24.7786 11.5264 24.4619 11.5897L24.6581 12.5703ZM25.76 12.5C26.5803 12.5 27.0525 12.6457 27.2911 12.8332C27.4793 12.981 27.5916 13.2111 27.5081 13.6706L28.4919 13.8494C28.6217 13.1356 28.4674 12.4856 27.9089 12.0468C27.4008 11.6476 26.6463 11.5 25.76 11.5V12.5ZM27.5211 13.6163L27.2811 14.4163L28.2389 14.7037L28.4789 13.9037L27.5211 13.6163ZM27.5135 14.995C29.1501 15.9224 31.0245 16.7091 33.133 17.3579L33.427 16.4021C31.3755 15.7709 29.5699 15.0109 28.0065 14.125L27.5135 14.995ZM33.1443 17.3612C35.2359 17.9512 37.7254 18.5667 40.6115 19.2081L40.8285 18.2319C37.9546 17.5933 35.4841 16.9822 33.4157 16.3988L33.1443 17.3612ZM40.6069 19.207C43.6016 19.9022 45.5073 20.4272 46.3696 20.7823L46.7504 19.8577C45.7994 19.4661 43.8118 18.9244 40.8331 18.2329L40.6069 19.207ZM70.1074 41.856L69.6754 41.604L69.6696 41.6145L70.1074 41.856ZM72.2834 40.256L72.5003 40.7065L72.507 40.7032L72.2834 40.256ZM77.0834 41.152L76.5884 41.0813L76.5834 41.1165V41.152H77.0834ZM77.0194 41.728L76.5262 41.6458V41.6458L77.0194 41.728ZM76.8914 42.304L76.417 42.1459L76.3914 42.2229V42.304H76.8914ZM76.8914 42.432L77.3859 42.5058L77.3914 42.4691V42.432H76.8914ZM75.4194 52.736L74.9241 52.6675L74.9235 52.672L75.4194 52.736ZM74.2034 62.08L74.6989 62.1471L74.6991 62.1455L74.2034 62.08ZM72.5394 74.368L73.0339 74.4422L73.0349 74.4351L72.5394 74.368ZM70.6834 76.544L70.4463 76.1037L70.4391 76.1077L70.6834 76.544ZM65.7554 76.992L65.4484 77.3867L65.4583 77.3944L65.4686 77.4016L65.7554 76.992ZM65.3074 75.712L65.8017 75.7881L65.8033 75.7754L65.3074 75.712ZM67.5474 59.2L68.0426 59.2691L67.1164 58.9465L67.5474 59.2ZM66.9074 60.288L67.3378 60.5424L67.3383 60.5415L66.9074 60.288ZM64.4114 64.384L63.9921 64.1115L63.9908 64.1136L64.4114 64.384ZM58.2674 71.936L57.9247 71.5719L57.9211 71.5753L58.2674 71.936ZM50.9074 76.032L51.0241 76.5182L51.0269 76.5175L50.9074 76.032ZM43.2274 59.52L43.7124 59.6413L43.7128 59.6398L43.2274 59.52ZM45.9794 50.304L45.5109 50.1292L45.5087 50.1354L45.9794 50.304ZM48.7314 43.776L49.176 44.0047L49.1786 43.9996L48.7314 43.776ZM50.7154 42.24L50.9077 42.7016L50.9167 42.6977L50.7154 42.24ZM55.1954 41.856L54.9304 42.28L54.9413 42.2868L54.9526 42.2931L55.1954 41.856ZM55.5794 43.52L56.0343 43.7274L56.0415 43.7117L56.0475 43.6956L55.5794 43.52ZM50.0114 60.608L50.5031 60.6991L50.5046 60.6902L50.0114 60.608ZM49.6914 62.336L50.1826 62.4296L50.183 62.427L49.6914 62.336ZM49.2434 67.456L48.7531 67.5541L48.7547 67.5623L48.7567 67.5705L49.2434 67.456ZM51.7394 70.528L51.6941 70.03L51.6842 70.0311L51.7394 70.528ZM53.4034 69.312L53.0297 68.9798L53.0244 68.9858L53.0193 68.9919L53.4034 69.312ZM54.6834 67.904L55.0369 68.2576L55.0503 68.2442L55.0625 68.2299L54.6834 67.904ZM60.3794 59.968L60.8087 60.2243L60.8103 60.2215L60.3794 59.968ZM66.3314 49.088L66.7752 49.3186L66.7802 49.3083L66.3314 49.088ZM70.5393 42.1079C70.7557 41.7369 71.3553 41.2578 72.5003 40.7065L72.0665 39.8055C70.9074 40.3636 70.0564 40.951 69.6755 41.6041L70.5393 42.1079ZM72.507 40.7032C73.6635 40.125 74.6297 39.86 75.4194 39.86V38.86C74.4171 38.86 73.2926 39.1924 72.0598 39.8088L72.507 40.7032ZM75.4194 39.86C75.9981 39.86 76.2886 39.9971 76.429 40.1482C76.5619 40.2913 76.6629 40.5595 76.5884 41.0813L77.5784 41.2227C77.6745 40.5498 77.5835 39.922 77.1618 39.4678C76.7475 39.0216 76.1206 38.86 75.4194 38.86V39.86ZM76.5834 41.152C76.5834 41.2369 76.5679 41.3953 76.5262 41.6458L77.5126 41.8102C77.5562 41.5487 77.5834 41.3231 77.5834 41.152H76.5834ZM76.5262 41.6458C76.4846 41.895 76.447 42.0559 76.417 42.1459L77.3657 42.4621C77.4211 42.2961 77.4688 42.073 77.5126 41.8102L76.5262 41.6458ZM76.3914 42.304V42.432H77.3914V42.304H76.3914ZM76.3969 42.3582C75.9698 45.2192 75.4789 48.6557 74.9241 52.6675L75.9147 52.8045C76.4692 48.795 76.9596 45.3622 77.3859 42.5058L76.3969 42.3582ZM74.9235 52.672C74.4115 56.6398 74.0062 59.7539 73.7077 62.0145L74.6991 62.1455C74.9978 59.8834 75.4032 56.7682 75.9153 52.8L74.9235 52.672ZM73.7079 62.0129L72.0439 74.3009L73.0349 74.4351L74.6989 62.1471L73.7079 62.0129ZM72.0449 74.2938C71.9496 74.9291 71.4839 75.5451 70.4463 76.1038L70.9204 76.9842C72.1016 76.3482 72.8731 75.5135 73.0338 74.4422L72.0449 74.2938ZM70.4391 76.1077C69.4392 76.6676 68.4346 76.94 67.4194 76.94V77.94C68.6228 77.94 69.7942 77.615 70.9277 76.9803L70.4391 76.1077ZM67.4194 76.94C66.8077 76.94 66.3621 76.8064 66.0421 76.5824L65.4686 77.4016C66.002 77.7749 66.6657 77.94 67.4194 77.94V76.94ZM66.0623 76.5973C65.8461 76.4292 65.7387 76.1966 65.8016 75.788L64.8132 75.636C64.7054 76.3367 64.8966 76.9575 65.4484 77.3867L66.0623 76.5973ZM65.8033 75.7754C66.2723 72.109 67.0186 66.6073 68.0426 59.2691L67.0522 59.1309C66.0281 66.47 65.2811 71.9763 64.8114 75.6486L65.8033 75.7754ZM67.1164 58.9465L66.4764 60.0345L67.3383 60.5415L67.9783 59.4535L67.1164 58.9465ZM66.4769 60.0336C65.3681 61.9101 64.5406 63.2677 63.9922 64.1115L64.8306 64.6565C65.3914 63.7936 66.228 62.4206 67.3378 60.5424L66.4769 60.0336ZM63.9908 64.1136C62.0888 67.0722 60.0661 69.5565 57.9247 71.5719L58.6101 72.3001C60.8207 70.2195 62.8939 67.6691 64.832 64.6544L63.9908 64.1136ZM57.9211 71.5753C55.8488 73.5648 53.4729 74.8856 50.7879 75.5465L51.0269 76.5175C53.8885 75.8131 56.4193 74.4032 58.6136 72.2967L57.9211 71.5753ZM50.7907 75.5458C49.752 75.7951 48.8321 75.916 48.0274 75.916V76.916C48.9293 76.916 49.9294 76.7809 51.0241 76.5182L50.7907 75.5458ZM48.0274 75.916C46.148 75.916 44.8088 75.2845 43.9184 74.072C43.0068 72.8307 42.5114 70.9082 42.5114 68.224H41.5114C41.5114 71.0011 42.0186 73.1746 43.1124 74.664C44.2273 76.1821 45.896 76.916 48.0274 76.916V75.916ZM42.5114 68.224C42.5114 65.7151 42.9089 62.8556 43.7124 59.6413L42.7423 59.3987C41.9246 62.6697 41.5114 65.6129 41.5114 68.224H42.5114ZM43.7128 59.6398C44.5199 56.3691 45.4324 53.3136 46.4501 50.4726L45.5087 50.1354C44.4783 53.0118 43.5562 56.1002 42.7419 59.4002L43.7128 59.6398ZM46.4478 50.4788C47.5122 47.6263 48.4215 45.4718 49.176 44.0047L48.2867 43.5473C47.5053 45.0668 46.5799 47.2644 45.5109 50.1292L46.4478 50.4788ZM49.1786 43.9996C49.3979 43.5609 49.9265 43.1103 50.9077 42.7015L50.5231 41.7785C49.4562 42.223 48.6621 42.7964 48.2842 43.5524L49.1786 43.9996ZM50.9167 42.6977C51.9317 42.2511 52.8871 42.036 53.7874 42.036V41.036C52.725 41.036 51.6324 41.2902 50.514 41.7823L50.9167 42.6977ZM53.7874 42.036C54.3335 42.036 54.6981 42.1348 54.9304 42.28L55.4604 41.432C55.01 41.1505 54.436 41.036 53.7874 41.036V42.036ZM54.9526 42.2931C55.2054 42.4336 55.2714 42.5791 55.2714 42.752H56.2714C56.2714 42.1569 55.9533 41.7051 55.4382 41.4189L54.9526 42.2931ZM55.2714 42.752C55.2714 42.8263 55.2366 43.0101 55.1112 43.3444L56.0475 43.6956C56.1782 43.3472 56.2714 43.019 56.2714 42.752H55.2714ZM55.1244 43.3126C52.2531 49.6123 50.3806 55.3511 49.5182 60.5258L50.5046 60.6902C51.3488 55.6249 53.1883 49.9717 56.0343 43.7274L55.1244 43.3126ZM49.5197 60.517L49.1997 62.245L50.183 62.427L50.503 60.699L49.5197 60.517ZM49.2002 62.2424C48.8574 64.0422 48.6794 65.4449 48.6794 66.432H49.6794C49.6794 65.5417 49.8427 64.2138 50.1825 62.4296L49.2002 62.2424ZM48.6794 66.432C48.6794 66.9055 48.7001 67.289 48.7531 67.5541L49.7337 67.3579C49.7013 67.1964 49.6794 66.8972 49.6794 66.432H48.6794ZM48.7567 67.5705C49.0195 68.6877 49.3775 69.5734 49.8633 70.1713C50.3691 70.7938 51.0238 71.1106 51.7946 71.0249L51.6842 70.0311C51.303 70.0734 50.9656 69.9422 50.6394 69.5407C50.2932 69.1146 49.9792 68.4003 49.7301 67.3415L48.7567 67.5705ZM51.7846 71.0259C52.1418 70.9935 52.4833 70.8288 52.8024 70.5957C53.124 70.3607 53.452 70.0346 53.7875 69.6321L53.0193 68.9919C52.7147 69.3574 52.4455 69.618 52.2124 69.7883C51.9767 69.9605 51.8063 70.0199 51.6941 70.0301L51.7846 71.0259ZM53.7771 69.6442C54.4638 68.8716 54.8791 68.4154 55.0369 68.2576L54.3298 67.5504C54.1463 67.734 53.7083 68.2164 53.0297 68.9798L53.7771 69.6442ZM55.0625 68.2299C57.1726 65.7754 59.0879 63.1066 60.8087 60.2243L59.9501 59.7117C58.2575 62.5467 56.3755 65.1686 54.3042 67.5781L55.0625 68.2299ZM60.8103 60.2215C62.5229 57.3101 64.5113 53.6751 66.7751 49.3185L65.8877 48.8575C63.6288 53.2049 61.6491 56.8232 59.9484 59.7145L60.8103 60.2215ZM66.7802 49.3083C67.9284 46.9694 69.1834 44.5658 70.5452 42.0975L69.6696 41.6145C68.3007 44.0956 67.0383 46.5133 65.8825 48.8677L66.7802 49.3083ZM105.582 49.472L105.29 49.8778L105.298 49.884L105.307 49.8899L105.582 49.472ZM106.99 59.328L106.509 59.1892L106.507 59.2001L106.99 59.328ZM106.414 61.504L106.896 61.6378L106.897 61.6319L106.414 61.504ZM104.494 68.608L104.01 68.4807L104.008 68.4887L104.494 68.608ZM103.022 75.392L102.53 75.3017L102.529 75.3098L103.022 75.392ZM101.294 77.376L101.056 76.9363L101.048 76.9407L101.294 77.376ZM96.8139 77.824L96.5139 78.224L96.8139 77.824ZM96.4299 76.672L95.9386 76.5784L95.9367 76.5898L96.4299 76.672ZM99.3739 64.704L99.8561 64.8362L99.8572 64.8321L99.3739 64.704ZM100.782 59.392L101.265 59.5201L101.267 59.5133L100.782 59.392ZM101.102 54.272L101.526 54.007L101.522 54.0008L101.518 53.9946L101.102 54.272ZM94.8299 53.952L94.9715 54.4315L94.9858 54.4273L94.9997 54.4223L94.8299 53.952ZM87.6619 57.216L87.418 56.7795L87.1822 56.9113L87.1631 57.1807L87.6619 57.216ZM86.5099 73.472L86.011 73.4367L86.0106 73.4457L86.5099 73.472ZM84.8459 75.584L84.6015 75.1477L84.5939 75.1521L84.8459 75.584ZM80.1099 76.096L79.7806 76.4723L79.8053 76.4939L79.8325 76.512L80.1099 76.096ZM79.6619 74.816L79.1636 74.7739L79.1633 74.7776L79.6619 74.816ZM80.7499 61.184L81.2486 61.2191L81.2839 60.7185L80.7831 60.6851L80.7499 61.184ZM79.5339 58.112L79.2269 57.7173L79.2087 57.7315L79.1919 57.7472L79.5339 58.112ZM81.1339 56.64L81.4874 56.9936L81.6174 56.8635L81.6323 56.6803L81.1339 56.64ZM83.3739 26.368L83.8728 26.4008L83.8731 26.3957L83.3739 26.368ZM84.9739 24.384L85.212 24.8237L85.2182 24.8203L84.9739 24.384ZM89.5819 23.872L89.2819 24.272L89.293 24.2803L89.3045 24.288L89.5819 23.872ZM90.0939 25.024L89.5956 24.9825L89.5955 24.9833L90.0939 25.024ZM88.1739 50.176L87.6751 50.1406L87.5858 51.3981L88.5127 50.5436L88.1739 50.176ZM102.446 37.952L102.139 37.5573L102.137 37.5591L102.446 37.952ZM103.854 37.312L103.966 37.7992L103.979 37.7963L103.991 37.7928L103.854 37.312ZM107.118 37.376L106.875 37.8131L106.903 37.8285L106.932 37.8402L107.118 37.376ZM106.734 39.808L106.419 39.4199L106.409 39.4278L106.4 39.4362L106.734 39.808ZM100.398 45.504L100.064 45.1322L100.062 45.1335L100.398 45.504ZM96.3019 49.216L95.9661 48.8455L96.4367 49.6975L96.3019 49.216ZM105.307 49.8899C106.622 50.754 107.322 52.1924 107.322 54.336H108.322C108.322 51.9569 107.528 50.1526 105.856 49.0541L105.307 49.8899ZM107.322 54.336C107.322 55.682 107.056 57.2971 106.51 59.1892L107.47 59.4668C108.033 57.5189 108.322 55.806 108.322 54.336H107.322ZM106.507 59.2001L105.931 61.3761L106.897 61.6319L107.473 59.4559L106.507 59.2001ZM105.932 61.3702C105.291 63.6765 104.651 66.0467 104.01 68.4808L104.977 68.7352C105.617 66.3053 106.256 63.9395 106.896 61.6378L105.932 61.3702ZM104.008 68.4887C103.409 70.9287 102.916 73.1998 102.53 75.3017L103.514 75.4823C103.896 73.4029 104.384 71.1513 104.979 68.7273L104.008 68.4887ZM102.529 75.3098C102.437 75.862 102.013 76.4176 101.056 76.9364L101.532 77.8156C102.622 77.2251 103.351 76.458 103.515 75.4742L102.529 75.3098ZM101.048 76.9407C100.134 77.4573 99.2152 77.708 98.2859 77.708V78.708C99.4046 78.708 100.491 78.404 101.54 77.8113L101.048 76.9407ZM98.2859 77.708C97.7026 77.708 97.335 77.5898 97.1139 77.424L96.5139 78.224C96.9754 78.5702 97.5891 78.708 98.2859 78.708V77.708ZM97.1139 77.424C96.9571 77.3064 96.8605 77.1299 96.9231 76.7542L95.9367 76.5898C95.8286 77.2381 95.988 77.8296 96.5139 78.224L97.1139 77.424ZM96.921 76.7656C97.4292 74.0978 98.4062 70.1241 99.8561 64.8362L98.8917 64.5718C97.4402 69.8652 96.4546 73.8702 95.9387 76.5784L96.921 76.7656ZM99.8572 64.8321L101.265 59.5201L100.299 59.2639L98.8906 64.5759L99.8572 64.8321ZM101.267 59.5133C101.694 57.8045 101.922 56.5149 101.922 55.68H100.922C100.922 56.3811 100.723 57.5661 100.297 59.2707L101.267 59.5133ZM101.922 55.68C101.922 55.0314 101.807 54.4574 101.526 54.007L100.678 54.537C100.823 54.7692 100.922 55.1339 100.922 55.68H101.922ZM101.518 53.9946C100.89 53.0525 99.878 52.62 98.6059 52.62V53.62C99.6377 53.62 100.29 53.9555 100.686 54.5494L101.518 53.9946ZM98.6059 52.62C97.5408 52.62 96.2193 52.9187 94.6601 53.4817L94.9997 54.4223C96.5124 53.876 97.7083 53.62 98.6059 53.62V52.62ZM94.6882 53.4725C92.7591 54.0424 90.3326 55.1508 87.418 56.7795L87.9058 57.6525C90.7938 56.0386 93.146 54.9709 94.9715 54.4315L94.6882 53.4725ZM87.1631 57.1807L86.0111 73.4367L87.0086 73.5073L88.1606 57.2513L87.1631 57.1807ZM86.0106 73.4457C85.9809 74.0094 85.5994 74.589 84.6016 75.1477L85.0902 76.0203C86.2257 75.3844 86.9535 74.556 87.0092 73.4983L86.0106 73.4457ZM84.5939 75.1521C83.6377 75.7099 82.6784 75.98 81.7099 75.98V76.98C82.8747 76.98 84.0061 76.6527 85.0978 76.0159L84.5939 75.1521ZM81.7099 75.98C81.0813 75.98 80.6585 75.8608 80.3872 75.68L79.8325 76.512C80.3292 76.8432 80.9731 76.98 81.7099 76.98V75.98ZM80.4391 75.7197C80.2435 75.5486 80.1268 75.2916 80.1604 74.8543L79.1633 74.7776C79.1116 75.4497 79.2935 76.0461 79.7806 76.4723L80.4391 75.7197ZM80.1601 74.8581C80.6721 68.7989 81.035 64.2521 81.2486 61.2191L80.2511 61.1489C80.038 64.1746 79.6756 68.7157 79.1637 74.7739L80.1601 74.8581ZM80.7831 60.6851C80.1879 60.6454 79.7241 60.5281 79.3735 60.3528L78.9263 61.2472C79.429 61.4986 80.0319 61.6372 80.7166 61.6829L80.7831 60.6851ZM79.3735 60.3528C79.067 60.1995 79.0099 60.0492 79.0099 59.904H78.0099C78.0099 60.5268 78.3794 60.9738 78.9263 61.2472L79.3735 60.3528ZM79.0099 59.904C79.0099 59.5573 79.2282 59.0839 79.8758 58.4768L79.1919 57.7472C78.4742 58.4201 78.0099 59.1413 78.0099 59.904H79.0099ZM79.8408 58.5067C80.2503 58.1882 80.8014 57.6796 81.4874 56.9936L80.7803 56.2864C80.101 56.9658 79.5855 57.4384 79.2269 57.7173L79.8408 58.5067ZM81.6323 56.6803C82.5284 45.585 83.2753 35.4918 83.8728 26.4008L82.875 26.3352C82.2778 35.4202 81.5313 45.5084 80.6355 56.5997L81.6323 56.6803ZM83.8731 26.3957C83.9018 25.8788 84.2567 25.3411 85.212 24.8236L84.7357 23.9444C83.6431 24.5362 82.9313 25.3212 82.8746 26.3403L83.8731 26.3957ZM85.2182 24.8203C86.2247 24.2566 87.1866 23.988 88.1099 23.988V22.988C86.9851 22.988 85.8564 23.3167 84.7296 23.9477L85.2182 24.8203ZM88.1099 23.988C88.6931 23.988 89.0608 24.1062 89.2819 24.272L89.8819 23.472C89.4203 23.1258 88.8066 22.988 88.1099 22.988V23.988ZM89.3045 24.288C89.5173 24.4299 89.6252 24.6268 89.5956 24.9825L90.5921 25.0655C90.6478 24.3972 90.4145 23.8261 89.8592 23.456L89.3045 24.288ZM89.5955 24.9833C88.9127 33.3477 88.2726 41.7335 87.6751 50.1406L88.6726 50.2114C89.2698 41.8078 89.9097 33.4256 90.5922 25.0647L89.5955 24.9833ZM88.5127 50.5436C93.4111 46.0286 98.1586 41.9625 102.755 38.3449L102.137 37.5591C97.5172 41.1948 92.7499 45.2781 87.835 49.8084L88.5127 50.5436ZM102.753 38.3467C103.071 38.0996 103.47 37.9136 103.966 37.7992L103.741 36.8248C103.128 36.9664 102.589 37.2071 102.139 37.5573L102.753 38.3467ZM103.991 37.7928C104.549 37.6334 105.079 37.556 105.582 37.556V36.556C104.976 36.556 104.353 36.6493 103.717 36.8312L103.991 37.7928ZM105.582 37.556C106.173 37.556 106.592 37.6556 106.875 37.8131L107.361 36.9389C106.876 36.6697 106.271 36.556 105.582 36.556V37.556ZM106.932 37.8402C107.088 37.9024 107.164 37.9682 107.202 38.0169C107.234 38.0595 107.258 38.1149 107.258 38.208H108.258C108.258 37.9171 108.175 37.6418 107.994 37.4071C107.818 37.1785 107.575 37.0202 107.304 36.9118L106.932 37.8402ZM107.258 38.208C107.258 38.4894 107.065 38.8945 106.419 39.4199L107.049 40.1961C107.768 39.6122 108.258 38.9506 108.258 38.208H107.258ZM106.4 39.4362L100.064 45.1322L100.732 45.8758L107.068 40.1798L106.4 39.4362ZM100.062 45.1335L95.9661 48.8455L96.6376 49.5865L100.734 45.8745L100.062 45.1335ZM96.4367 49.6975C98.5498 49.1058 100.249 48.82 101.55 48.82V47.82C100.12 47.82 98.3207 48.1315 96.1671 48.7345L96.4367 49.6975ZM101.55 48.82C103.091 48.82 104.326 49.1841 105.29 49.8778L105.874 49.0662C104.704 48.2239 103.251 47.82 101.55 47.82V48.82ZM119.904 68.096L119.414 67.9979L119.412 68.0058L119.411 68.0138L119.904 68.096ZM125.856 70.912L126.039 71.3772L126.042 71.3762L125.856 70.912ZM132.96 67.648L133.177 68.0985L133.435 67.974L133.458 67.6879L132.96 67.648ZM133.216 64.576L132.72 64.514L132.719 64.5233L132.718 64.5327L133.216 64.576ZM133.536 61.824L134.033 61.8763L134.033 61.8745L133.536 61.824ZM133.984 57.408L134.481 57.4585L134.571 56.5729L133.768 56.9569L133.984 57.408ZM127.392 60.736L127.148 60.2995L127.141 60.3035L127.392 60.736ZM122.272 64.256L122.592 64.6402L122.599 64.6338L122.272 64.256ZM140.384 39.424L139.965 39.6971L139.972 39.7078L139.98 39.7181L140.384 39.424ZM141.408 43.584L141.908 43.6018L141.908 43.5929V43.584H141.408ZM141.344 45.376L141.843 45.4034L141.844 45.3938L141.344 45.376ZM140.192 59.072L140.686 59.1462L140.688 59.1338L140.689 59.1214L140.192 59.072ZM139.744 63.36L140.239 63.4283L140.241 63.4154L140.242 63.4024L139.744 63.36ZM139.296 66.368L138.803 66.2858L138.744 66.6366L139.056 66.8069L139.296 66.368ZM139.552 68.736L139.942 69.0483L139.975 69.007L139.999 68.9596L139.552 68.736ZM139.296 69.056L139.649 69.4096L139.669 69.39L139.686 69.3683L139.296 69.056ZM138.912 69.44L138.558 69.0864L138.439 69.2054L138.417 69.372L138.912 69.44ZM138.464 75.008H137.964V75.2982L138.216 75.4421L138.464 75.008ZM137.76 78.528L138.05 78.9349L138.057 78.9306L138.062 78.9261L137.76 78.528ZM136.736 79.168L136.493 78.7309L136.488 78.7339L136.736 79.168ZM135.456 79.616L135.343 79.1287L135.335 79.1309L135.456 79.616ZM131.744 78.08L132.241 78.1352L132.242 78.1274L131.744 78.08ZM132.256 72.704L132.754 72.7514L132.837 71.8722L132.04 72.2528L132.256 72.704ZM119.456 60.288L119.177 59.8733L119.175 59.8746L119.456 60.288ZM134.432 52.672L134.613 53.1379L134.898 53.0269L134.929 52.723L134.432 52.672ZM134.816 47.616L135.315 47.641L135.316 47.6285V47.616H134.816ZM134.88 46.336L134.382 46.2945L134.88 46.336ZM134.752 43.008L135.199 42.7844L135.179 42.7441L135.152 42.708L134.752 43.008ZM134.56 42.752L134.96 42.452L134.81 42.252H134.56V42.752ZM130.912 45.376L131.261 45.7344L131.265 45.7296L130.912 45.376ZM125.024 52.288L124.626 51.9844L124.62 51.9939L125.024 52.288ZM123.296 53.44L123.123 52.9708L123.115 52.974L123.296 53.44ZM119.392 53.568L119.149 54.0051L119.159 54.0104L119.168 54.0152L119.392 53.568ZM119.328 51.264L118.911 50.9876L118.907 50.9947L118.902 51.0019L119.328 51.264ZM119.411 68.0138C119.325 68.5254 119.276 68.9248 119.276 69.184H120.276C120.276 69.0165 120.312 68.6906 120.397 68.1782L119.411 68.0138ZM119.276 69.184C119.276 70.1113 119.502 70.8992 120.042 71.453C120.584 72.0093 121.36 72.244 122.272 72.244V71.244C121.52 71.244 121.048 71.052 120.758 70.755C120.466 70.4555 120.276 69.9634 120.276 69.184H119.276ZM122.272 72.244C123.34 72.244 124.601 71.9437 126.039 71.3772L125.673 70.4468C124.295 70.9896 123.166 71.244 122.272 71.244V72.244ZM126.042 71.3762C127.34 70.857 129.722 69.7617 133.177 68.0985L132.743 67.1975C129.285 68.8623 126.932 69.943 125.67 70.4478L126.042 71.3762ZM133.458 67.6879C133.544 66.6223 133.629 65.5994 133.714 64.6193L132.718 64.5327C132.632 65.5153 132.547 66.5404 132.461 67.6081L133.458 67.6879ZM133.712 64.638C133.84 63.6116 133.947 62.6909 134.033 61.8763L133.039 61.7717C132.954 62.5784 132.847 63.4924 132.72 64.514L133.712 64.638ZM134.033 61.8745L134.481 57.4585L133.486 57.3575L133.038 61.7735L134.033 61.8745ZM133.768 56.9569C130.822 58.366 128.613 59.4809 127.148 60.2995L127.636 61.1725C129.072 60.3698 131.258 59.266 134.2 57.8591L133.768 56.9569ZM127.141 60.3035C124.992 61.5501 123.256 62.7412 121.944 63.8782L122.599 64.6338C123.848 63.5521 125.525 62.3965 127.643 61.1685L127.141 60.3035ZM121.952 63.8719C120.593 65.0043 119.737 66.3819 119.414 67.9979L120.394 68.1941C120.668 66.8235 121.391 65.641 122.592 64.6401L121.952 63.8719ZM136.544 38.452C138.405 38.452 139.465 38.93 139.965 39.6971L140.803 39.1509C140.023 37.9554 138.522 37.452 136.544 37.452V38.452ZM139.98 39.7181C140.573 40.5346 140.908 41.7981 140.908 43.584H141.908C141.908 41.7006 141.56 40.1908 140.788 39.1299L139.98 39.7181ZM140.908 43.5662L140.844 45.3582L141.844 45.3938L141.908 43.6018L140.908 43.5662ZM140.845 45.3486C140.675 48.452 140.291 53.0085 139.694 59.0226L140.689 59.1214C141.287 53.1035 141.672 48.5293 141.843 45.4034L140.845 45.3486ZM139.697 58.9978C139.567 59.8685 139.416 61.3118 139.246 63.3176L140.242 63.4024C140.413 61.3975 140.561 59.9822 140.686 59.1462L139.697 58.9978ZM139.249 63.2917C139.078 64.5268 138.93 65.5243 138.803 66.2858L139.789 66.4502C139.918 65.6757 140.068 64.6679 140.239 63.4283L139.249 63.2917ZM139.056 66.8069C139.413 67.0014 139.5 67.197 139.5 67.392H140.5C140.5 66.7337 140.117 66.2466 139.535 65.9291L139.056 66.8069ZM139.5 67.392C139.5 67.5633 139.401 67.919 139.105 68.5124L139.999 68.9596C140.3 68.3584 140.5 67.8181 140.5 67.392H139.5ZM139.161 68.4237L138.905 68.7437L139.686 69.3683L139.942 69.0483L139.161 68.4237ZM138.942 68.7024L138.558 69.0864L139.265 69.7936L139.649 69.4096L138.942 68.7024ZM138.417 69.372C138.116 71.5618 137.964 73.4419 137.964 75.008H138.964C138.964 73.5021 139.11 71.6702 139.407 69.508L138.417 69.372ZM138.216 75.4421C138.737 75.74 138.86 76.0102 138.86 76.224H139.86C139.86 75.4991 139.385 74.9586 138.712 74.5739L138.216 75.4421ZM138.86 76.224C138.86 76.7005 138.499 77.3383 137.457 78.1299L138.062 78.9261C139.154 78.0963 139.86 77.1982 139.86 76.224H138.86ZM137.469 78.1211C137.189 78.3216 136.864 78.525 136.493 78.7309L136.979 79.6051C137.376 79.3843 137.734 79.161 138.05 78.9349L137.469 78.1211ZM136.488 78.7339C136.25 78.8697 135.877 79.0056 135.343 79.1288L135.568 80.1032C136.144 79.9704 136.624 79.8076 136.984 79.6021L136.488 78.7339ZM135.335 79.1309C134.861 79.2493 134.39 79.308 133.92 79.308V80.308C134.474 80.308 135.027 80.2387 135.577 80.1011L135.335 79.1309ZM133.92 79.308C133.171 79.308 132.734 79.1677 132.503 78.9844C132.31 78.831 132.19 78.5895 132.241 78.1352L131.247 78.0248C131.169 78.7225 131.349 79.345 131.881 79.7676C132.376 80.1603 133.09 80.308 133.92 80.308V79.308ZM132.242 78.1274L132.754 72.7514L131.758 72.6566L131.246 78.0326L132.242 78.1274ZM132.04 72.2528C126.334 74.9784 122.025 76.3 119.072 76.3V77.3C122.263 77.3 126.743 75.8909 132.471 73.1552L132.04 72.2528ZM119.072 76.3C117.218 76.3 115.916 75.8025 115.07 74.8918C114.218 73.9741 113.748 72.5504 113.748 70.528H112.748C112.748 72.6869 113.248 74.3993 114.337 75.5722C115.433 76.7522 117.044 77.3 119.072 77.3V76.3ZM113.748 70.528C113.748 66.7244 115.697 63.4504 119.737 60.7014L119.175 59.8746C114.937 62.7576 112.748 66.3103 112.748 70.528H113.748ZM119.735 60.7027C123.88 57.9115 128.837 55.3888 134.613 53.1379L134.25 52.2061C128.421 54.4779 123.395 57.0325 119.177 59.8733L119.735 60.7027ZM134.929 52.723C135.101 51.0502 135.229 49.3561 135.315 47.641L134.316 47.591C134.232 49.2892 134.104 50.9658 133.934 52.621L134.929 52.723ZM135.316 47.616C135.316 47.2936 135.336 46.8819 135.378 46.3775L134.382 46.2945C134.338 46.8141 134.316 47.2558 134.316 47.616H135.316ZM135.378 46.3775C135.422 45.8489 135.444 45.2587 135.444 44.608H134.444C134.444 45.2373 134.423 45.7991 134.382 46.2945L135.378 46.3775ZM135.444 44.608C135.444 44.1917 135.428 43.8341 135.392 43.5404C135.358 43.2576 135.302 42.991 135.199 42.7844L134.305 43.2316C134.329 43.281 134.369 43.409 134.399 43.6596C134.428 43.8992 134.444 44.2136 134.444 44.608H135.444ZM135.152 42.708L134.96 42.452L134.16 43.052L134.352 43.308L135.152 42.708ZM134.56 42.252H134.496V43.252H134.56V42.252ZM134.496 42.252C134.23 42.252 133.958 42.3401 133.697 42.4647C133.43 42.592 133.138 42.775 132.825 43.0046C132.197 43.4637 131.441 44.14 130.558 45.0224L131.265 45.7296C132.132 44.8627 132.848 44.227 133.415 43.8114C133.699 43.6037 133.935 43.4587 134.127 43.3673C134.324 43.2732 134.441 43.252 134.496 43.252V42.252ZM130.563 45.0176C128.959 46.5788 126.979 48.9052 124.627 51.9845L125.421 52.5915C127.762 49.5268 129.708 47.2452 131.261 45.7344L130.563 45.0176ZM124.62 51.9939C124.358 52.3531 123.884 52.6906 123.123 52.9708L123.469 53.9092C124.329 53.592 125.007 53.1616 125.428 52.5821L124.62 51.9939ZM123.115 52.974C122.403 53.2506 121.676 53.388 120.928 53.388V54.388C121.802 54.388 122.652 54.2268 123.477 53.906L123.115 52.974ZM120.928 53.388C120.389 53.388 119.957 53.2918 119.615 53.1208L119.168 54.0152C119.68 54.2709 120.272 54.388 120.928 54.388V53.388ZM119.635 53.1309C119.506 53.0593 119.432 52.9832 119.389 52.9108C119.346 52.8391 119.316 52.7439 119.316 52.608H118.316C118.316 52.8987 118.382 53.1769 118.531 53.4252C118.68 53.6728 118.894 53.8634 119.149 54.0051L119.635 53.1309ZM119.316 52.608C119.316 52.4107 119.424 52.062 119.754 51.526L118.902 51.0019C118.549 51.5754 118.316 52.1226 118.316 52.608H119.316ZM119.745 51.5404C125.62 42.6853 131.228 38.452 136.544 38.452V37.452C130.681 37.452 124.812 42.0934 118.911 50.9876L119.745 51.5404ZM164.125 37.76L163.934 37.2979L163.924 37.3019L164.125 37.76ZM170.205 37.888L169.876 38.2643L169.882 38.2703L169.89 38.2761L170.205 37.888ZM170.653 44.672L170.17 44.5441L170.653 44.672ZM169.053 49.792L168.581 49.6277L168.579 49.6339L169.053 49.792ZM168.157 52.48L167.682 52.3219L167.68 52.3294L168.157 52.48ZM166.173 54.528L165.942 54.0844L166.173 54.528ZM161.629 54.976L161.275 55.3296L161.3 55.3547L161.329 55.376L161.629 54.976ZM161.437 53.696L160.961 53.543L160.959 53.549L161.437 53.696ZM163.741 45.76L164.224 45.8879L164.233 45.8564L164.237 45.824L163.741 45.76ZM164.125 43.136L164.615 43.2341L164.939 41.6147L163.771 42.7824L164.125 43.136ZM163.869 43.392L164.194 43.7716L164.209 43.7591L164.222 43.7456L163.869 43.392ZM154.845 54.016L154.424 53.7465L154.371 53.8294L154.353 53.9263L154.845 54.016ZM152.541 74.432L153.04 74.4583L153.04 74.4539L152.541 74.432ZM150.877 76.608L151.129 77.0399L151.134 77.0367L150.877 76.608ZM146.077 77.056L146.364 76.6464L146.077 77.056ZM145.501 75.712L146 75.7476L146 75.7397L145.501 75.712ZM147.485 57.792L147.978 57.8754L148.031 57.5637L147.772 57.3824L147.485 57.792ZM147.101 55.936L146.672 55.6787L146.667 55.6879L147.101 55.936ZM148.061 54.336L148.49 54.5932L148.535 54.5171L148.552 54.4299L148.061 54.336ZM151.517 39.552L151.035 39.4182L151.035 39.419L151.517 39.552ZM153.501 37.568L153.725 38.0153L153.731 38.0119L153.501 37.568ZM158.237 37.056L157.937 37.456V37.456L158.237 37.056ZM158.493 38.208L158.019 38.0499L158.015 38.0602L158.012 38.0706L158.493 38.208ZM157.213 42.944L156.725 42.8355L156.352 44.5117L157.566 43.2976L157.213 42.944ZM164.316 38.222C165.511 37.7277 166.575 37.492 167.517 37.492V36.492C166.41 36.492 165.214 36.7682 163.934 37.298L164.316 38.222ZM167.517 37.492C168.533 37.492 169.303 37.7635 169.876 38.2643L170.534 37.5117C169.741 36.8178 168.719 36.492 167.517 36.492V37.492ZM169.89 38.2761C170.41 38.6986 170.729 39.4397 170.729 40.64H171.729C171.729 39.2803 171.365 38.1867 170.52 37.4999L169.89 38.2761ZM170.729 40.64C170.729 41.8261 170.545 43.1266 170.17 44.5441L171.136 44.7999C171.529 43.316 171.729 41.9285 171.729 40.64H170.729ZM170.17 44.5441C169.79 45.9788 169.261 47.6729 168.581 49.6277L169.525 49.9563C170.21 47.9858 170.748 46.2665 171.136 44.7999L170.17 44.5441ZM168.579 49.6339L167.683 52.3219L168.631 52.6381L169.527 49.9501L168.579 49.6339ZM167.68 52.3294C167.478 52.969 166.94 53.5653 165.942 54.0844L166.404 54.9716C167.539 54.3814 168.324 53.6123 168.634 52.6306L167.68 52.3294ZM165.942 54.0844C164.931 54.6102 163.986 54.86 163.101 54.86V55.86C164.179 55.86 165.281 55.5551 166.404 54.9716L165.942 54.0844ZM163.101 54.86C162.518 54.86 162.15 54.7418 161.929 54.576L161.329 55.376C161.79 55.7222 162.404 55.86 163.101 55.86V54.86ZM161.982 54.6224C161.863 54.5026 161.775 54.2964 161.915 53.843L160.959 53.549C160.757 54.2049 160.798 54.8521 161.275 55.3296L161.982 54.6224ZM161.913 53.849C162.684 51.45 163.454 48.7961 164.224 45.8879L163.258 45.6321C162.491 48.5265 161.726 51.1634 160.961 53.543L161.913 53.849ZM164.237 45.824C164.408 44.4982 164.534 43.6409 164.615 43.2341L163.635 43.0379C163.545 43.4845 163.415 44.3765 163.245 45.696L164.237 45.824ZM163.771 42.7824L163.515 43.0384L164.222 43.7456L164.478 43.4896L163.771 42.7824ZM163.543 43.0124C160.215 45.8651 157.176 49.4455 154.424 53.7465L155.266 54.2855C157.975 50.0532 160.952 46.5509 164.194 43.7716L163.543 43.0124ZM154.353 53.9263C153.112 60.7325 152.341 67.5605 152.041 74.4101L153.04 74.4539C153.338 67.6502 154.103 60.8675 155.337 54.1057L154.353 53.9263ZM152.042 74.4057C152.012 74.9753 151.623 75.5771 150.62 76.1793L151.134 77.0367C152.264 76.3589 152.985 75.51 153.04 74.4583L152.042 74.4057ZM150.625 76.1761C149.672 76.732 148.692 77.004 147.677 77.004V78.004C148.881 78.004 150.034 77.6787 151.129 77.0399L150.625 76.1761ZM147.677 77.004C147.116 77.004 146.689 76.8739 146.364 76.6464L145.79 77.4656C146.318 77.8354 146.958 78.004 147.677 78.004V77.004ZM146.364 76.6464C146.105 76.4653 145.967 76.2008 146 75.7476L145.002 75.6764C144.949 76.4178 145.196 77.0494 145.79 77.4656L146.364 76.6464ZM146 75.7397C146.34 69.6135 147 63.6588 147.978 57.8754L146.992 57.7086C146.007 63.5305 145.344 69.5225 145.002 75.6843L146 75.7397ZM147.772 57.3824C147.427 57.1409 147.345 56.9343 147.345 56.768H146.345C146.345 57.3697 146.69 57.8458 147.198 58.2016L147.772 57.3824ZM147.345 56.768C147.345 56.6239 147.393 56.4322 147.535 56.1841L146.667 55.6879C146.467 56.0371 146.345 56.4001 146.345 56.768H147.345ZM147.53 56.1932L148.49 54.5932L147.632 54.0788L146.672 55.6788L147.53 56.1932ZM148.552 54.4299C149.488 49.5368 150.637 44.6218 151.999 39.685L151.035 39.419C149.666 44.3809 148.511 49.3219 147.57 54.2421L148.552 54.4299ZM151.999 39.6858C152.157 39.1144 152.672 38.5414 153.724 38.0152L153.277 37.1208C152.111 37.7039 151.303 38.4536 151.035 39.4182L151.999 39.6858ZM153.731 38.0119C154.83 37.4418 155.84 37.172 156.765 37.172V36.172C155.642 36.172 154.475 36.4995 153.271 37.1241L153.731 38.0119ZM156.765 37.172C157.348 37.172 157.716 37.2902 157.937 37.456L158.537 36.656C158.075 36.3098 157.462 36.172 156.765 36.172V37.172ZM157.937 37.456C158.021 37.5189 158.054 37.5792 158.069 37.6445C158.086 37.721 158.085 37.8491 158.019 38.0499L158.967 38.3661C159.071 38.0549 159.113 37.735 159.045 37.4275C158.974 37.1088 158.794 36.8491 158.537 36.656L157.937 37.456ZM158.012 38.0706C157.33 40.457 156.899 42.0504 156.725 42.8355L157.701 43.0525C157.868 42.3016 158.29 40.7376 158.974 38.3454L158.012 38.0706ZM157.566 43.2976C160.106 40.7577 162.359 39.0784 164.325 38.2181L163.924 37.3019C161.795 38.2336 159.439 40.0103 156.859 42.5904L157.566 43.2976ZM173.904 68.096L173.414 67.9979L173.412 68.0058L173.411 68.0138L173.904 68.096ZM179.856 70.912L180.039 71.3772L180.042 71.3762L179.856 70.912ZM186.96 67.648L187.177 68.0985L187.435 67.974L187.458 67.6879L186.96 67.648ZM187.216 64.576L186.72 64.514L186.719 64.5233L186.718 64.5327L187.216 64.576ZM187.536 61.824L188.033 61.8763L188.033 61.8745L187.536 61.824ZM187.984 57.408L188.481 57.4585L188.571 56.5729L187.768 56.9569L187.984 57.408ZM181.392 60.736L181.148 60.2995L181.141 60.3035L181.392 60.736ZM176.272 64.256L176.592 64.6402L176.599 64.6338L176.272 64.256ZM194.384 39.424L193.965 39.6971L193.972 39.7078L193.98 39.7181L194.384 39.424ZM195.408 43.584L195.908 43.6018L195.908 43.5929V43.584H195.408ZM195.344 45.376L195.843 45.4034L195.844 45.3938L195.344 45.376ZM194.192 59.072L194.686 59.1462L194.688 59.1338L194.689 59.1214L194.192 59.072ZM193.744 63.36L194.239 63.4283L194.241 63.4154L194.242 63.4024L193.744 63.36ZM193.296 66.368L192.803 66.2858L192.744 66.6366L193.056 66.8069L193.296 66.368ZM193.552 68.736L193.942 69.0483L193.975 69.007L193.999 68.9596L193.552 68.736ZM193.296 69.056L193.649 69.4096L193.669 69.39L193.686 69.3683L193.296 69.056ZM192.912 69.44L192.558 69.0864L192.439 69.2054L192.417 69.372L192.912 69.44ZM192.464 75.008H191.964V75.2982L192.216 75.4421L192.464 75.008ZM191.76 78.528L192.05 78.9349L192.057 78.9306L192.062 78.9261L191.76 78.528ZM190.736 79.168L190.493 78.7309L190.488 78.7339L190.736 79.168ZM189.456 79.616L189.343 79.1287L189.335 79.1309L189.456 79.616ZM185.744 78.08L186.241 78.1352L186.242 78.1274L185.744 78.08ZM186.256 72.704L186.754 72.7514L186.837 71.8722L186.04 72.2528L186.256 72.704ZM173.456 60.288L173.177 59.8733L173.175 59.8746L173.456 60.288ZM188.432 52.672L188.613 53.1379L188.898 53.0269L188.929 52.723L188.432 52.672ZM188.816 47.616L189.315 47.641L189.316 47.6285V47.616H188.816ZM188.88 46.336L188.382 46.2945L188.88 46.336ZM188.752 43.008L189.199 42.7844L189.179 42.7441L189.152 42.708L188.752 43.008ZM188.56 42.752L188.96 42.452L188.81 42.252H188.56V42.752ZM184.912 45.376L185.261 45.7344L185.265 45.7296L184.912 45.376ZM179.024 52.288L178.626 51.9844L178.62 51.9939L179.024 52.288ZM177.296 53.44L177.123 52.9708L177.115 52.974L177.296 53.44ZM173.392 53.568L173.149 54.0051L173.159 54.0104L173.168 54.0152L173.392 53.568ZM173.328 51.264L172.911 50.9876L172.907 50.9947L172.902 51.0019L173.328 51.264ZM173.411 68.0138C173.325 68.5254 173.276 68.9248 173.276 69.184H174.276C174.276 69.0165 174.312 68.6906 174.397 68.1782L173.411 68.0138ZM173.276 69.184C173.276 70.1113 173.502 70.8992 174.042 71.453C174.584 72.0093 175.36 72.244 176.272 72.244V71.244C175.52 71.244 175.048 71.052 174.758 70.755C174.466 70.4555 174.276 69.9634 174.276 69.184H173.276ZM176.272 72.244C177.34 72.244 178.601 71.9437 180.039 71.3772L179.673 70.4468C178.295 70.9896 177.166 71.244 176.272 71.244V72.244ZM180.042 71.3762C181.34 70.857 183.722 69.7617 187.177 68.0985L186.743 67.1975C183.285 68.8623 180.932 69.943 179.67 70.4478L180.042 71.3762ZM187.458 67.6879C187.544 66.6223 187.629 65.5994 187.714 64.6193L186.718 64.5327C186.632 65.5153 186.547 66.5404 186.461 67.6081L187.458 67.6879ZM187.712 64.638C187.84 63.6116 187.947 62.6909 188.033 61.8763L187.039 61.7717C186.954 62.5784 186.847 63.4924 186.72 64.514L187.712 64.638ZM188.033 61.8745L188.481 57.4585L187.486 57.3575L187.038 61.7735L188.033 61.8745ZM187.768 56.9569C184.822 58.366 182.613 59.4809 181.148 60.2995L181.636 61.1725C183.072 60.3698 185.258 59.266 188.2 57.8591L187.768 56.9569ZM181.141 60.3035C178.992 61.5501 177.256 62.7412 175.944 63.8782L176.599 64.6338C177.848 63.5521 179.525 62.3965 181.643 61.1685L181.141 60.3035ZM175.952 63.8719C174.593 65.0043 173.737 66.3819 173.414 67.9979L174.394 68.1941C174.668 66.8235 175.391 65.641 176.592 64.6401L175.952 63.8719ZM190.544 38.452C192.405 38.452 193.465 38.93 193.965 39.6971L194.803 39.1509C194.023 37.9554 192.522 37.452 190.544 37.452V38.452ZM193.98 39.7181C194.573 40.5346 194.908 41.7981 194.908 43.584H195.908C195.908 41.7006 195.56 40.1908 194.788 39.1299L193.98 39.7181ZM194.908 43.5662L194.844 45.3582L195.844 45.3938L195.908 43.6018L194.908 43.5662ZM194.845 45.3486C194.675 48.452 194.291 53.0085 193.694 59.0226L194.689 59.1214C195.287 53.1035 195.672 48.5293 195.843 45.4034L194.845 45.3486ZM193.697 58.9978C193.567 59.8685 193.416 61.3118 193.246 63.3176L194.242 63.4024C194.413 61.3975 194.561 59.9822 194.686 59.1462L193.697 58.9978ZM193.249 63.2917C193.078 64.5268 192.93 65.5243 192.803 66.2858L193.789 66.4502C193.918 65.6757 194.068 64.6679 194.239 63.4283L193.249 63.2917ZM193.056 66.8069C193.413 67.0014 193.5 67.197 193.5 67.392H194.5C194.5 66.7337 194.117 66.2466 193.535 65.9291L193.056 66.8069ZM193.5 67.392C193.5 67.5633 193.401 67.919 193.105 68.5124L193.999 68.9596C194.3 68.3584 194.5 67.8181 194.5 67.392H193.5ZM193.161 68.4237L192.905 68.7437L193.686 69.3683L193.942 69.0483L193.161 68.4237ZM192.942 68.7024L192.558 69.0864L193.265 69.7936L193.649 69.4096L192.942 68.7024ZM192.417 69.372C192.116 71.5618 191.964 73.4419 191.964 75.008H192.964C192.964 73.5021 193.11 71.6702 193.407 69.508L192.417 69.372ZM192.216 75.4421C192.737 75.74 192.86 76.0102 192.86 76.224H193.86C193.86 75.4991 193.385 74.9586 192.712 74.5739L192.216 75.4421ZM192.86 76.224C192.86 76.7005 192.499 77.3383 191.457 78.1299L192.062 78.9261C193.154 78.0963 193.86 77.1982 193.86 76.224H192.86ZM191.469 78.1211C191.189 78.3216 190.864 78.525 190.493 78.7309L190.979 79.6051C191.376 79.3843 191.734 79.161 192.05 78.9349L191.469 78.1211ZM190.488 78.7339C190.25 78.8697 189.877 79.0056 189.343 79.1288L189.568 80.1032C190.144 79.9704 190.624 79.8076 190.984 79.6021L190.488 78.7339ZM189.335 79.1309C188.861 79.2493 188.39 79.308 187.92 79.308V80.308C188.474 80.308 189.027 80.2387 189.577 80.1011L189.335 79.1309ZM187.92 79.308C187.171 79.308 186.734 79.1677 186.503 78.9844C186.31 78.831 186.19 78.5895 186.241 78.1352L185.247 78.0248C185.169 78.7225 185.349 79.345 185.881 79.7676C186.376 80.1603 187.09 80.308 187.92 80.308V79.308ZM186.242 78.1274L186.754 72.7514L185.758 72.6566L185.246 78.0326L186.242 78.1274ZM186.04 72.2528C180.334 74.9784 176.025 76.3 173.072 76.3V77.3C176.263 77.3 180.743 75.8909 186.471 73.1552L186.04 72.2528ZM173.072 76.3C171.218 76.3 169.916 75.8025 169.07 74.8918C168.218 73.9741 167.748 72.5504 167.748 70.528H166.748C166.748 72.6869 167.248 74.3993 168.337 75.5722C169.433 76.7522 171.044 77.3 173.072 77.3V76.3ZM167.748 70.528C167.748 66.7244 169.697 63.4504 173.737 60.7014L173.175 59.8746C168.937 62.7576 166.748 66.3103 166.748 70.528H167.748ZM173.735 60.7027C177.88 57.9115 182.837 55.3888 188.613 53.1379L188.25 52.2061C182.421 54.4779 177.395 57.0325 173.177 59.8733L173.735 60.7027ZM188.929 52.723C189.101 51.0502 189.229 49.3561 189.315 47.641L188.316 47.591C188.232 49.2892 188.104 50.9658 187.934 52.621L188.929 52.723ZM189.316 47.616C189.316 47.2936 189.336 46.8819 189.378 46.3775L188.382 46.2945C188.338 46.8141 188.316 47.2558 188.316 47.616H189.316ZM189.378 46.3775C189.422 45.8489 189.444 45.2587 189.444 44.608H188.444C188.444 45.2373 188.423 45.7991 188.382 46.2945L189.378 46.3775ZM189.444 44.608C189.444 44.1917 189.428 43.8341 189.392 43.5404C189.358 43.2576 189.302 42.991 189.199 42.7844L188.305 43.2316C188.329 43.281 188.369 43.409 188.399 43.6596C188.428 43.8992 188.444 44.2136 188.444 44.608H189.444ZM189.152 42.708L188.96 42.452L188.16 43.052L188.352 43.308L189.152 42.708ZM188.56 42.252H188.496V43.252H188.56V42.252ZM188.496 42.252C188.23 42.252 187.958 42.3401 187.697 42.4647C187.43 42.592 187.138 42.775 186.825 43.0046C186.197 43.4637 185.441 44.14 184.558 45.0224L185.265 45.7296C186.132 44.8627 186.848 44.227 187.415 43.8114C187.699 43.6037 187.935 43.4587 188.127 43.3673C188.324 43.2732 188.441 43.252 188.496 43.252V42.252ZM184.563 45.0176C182.959 46.5788 180.979 48.9052 178.627 51.9845L179.421 52.5915C181.762 49.5268 183.708 47.2452 185.261 45.7344L184.563 45.0176ZM178.62 51.9939C178.358 52.3531 177.884 52.6906 177.123 52.9708L177.469 53.9092C178.329 53.592 179.007 53.1616 179.428 52.5821L178.62 51.9939ZM177.115 52.974C176.403 53.2506 175.676 53.388 174.928 53.388V54.388C175.802 54.388 176.652 54.2268 177.477 53.906L177.115 52.974ZM174.928 53.388C174.389 53.388 173.957 53.2918 173.615 53.1208L173.168 54.0152C173.68 54.2709 174.272 54.388 174.928 54.388V53.388ZM173.635 53.1309C173.506 53.0593 173.432 52.9832 173.389 52.9108C173.346 52.8391 173.316 52.7439 173.316 52.608H172.316C172.316 52.8987 172.382 53.1769 172.531 53.4252C172.68 53.6728 172.894 53.8634 173.149 54.0051L173.635 53.1309ZM173.316 52.608C173.316 52.4107 173.424 52.062 173.754 51.526L172.902 51.0019C172.549 51.5754 172.316 52.1226 172.316 52.608H173.316ZM173.745 51.5404C179.62 42.6853 185.228 38.452 190.544 38.452V37.452C184.681 37.452 178.812 42.0934 172.911 50.9876L173.745 51.5404Z" fill="white"/>
</g>
<path d="M30.48 42C41.0933 37.84 46.4 33.9467 46.4 30.32C46.4 28.24 45.0933 26.6667 42.48 25.6C39.8667 24.48 36.4267 23.4667 32.16 22.56C31.1467 22.4 29.9733 22.1333 28.64 21.76L26.4 21.04C24.64 29.9467 23.2533 37.76 22.24 44.48C24.16 44.2667 26.9067 43.44 30.48 42ZM46.56 20.32C49.0133 21.2267 50.88 22.4 52.16 23.84C53.4933 25.28 54.16 26.8533 54.16 28.56C54.16 31.0133 52.8267 33.4933 50.16 36C46.5867 39.36 42.2933 42.2667 37.28 44.72C32.32 47.12 27.36 48.7467 22.4 49.6C21.9733 49.7067 21.6533 49.76 21.44 49.76C20.1067 58.6667 19.12 66.7733 18.48 74.08C18.3733 75.0933 17.6267 75.9733 16.24 76.72C14.8533 77.4667 13.4667 77.84 12.08 77.84C11.3333 77.84 10.72 77.68 10.24 77.36C9.76 77.04 9.54667 76.56 9.6 75.92C10.4533 67.3867 11.5467 58.4267 12.88 49.04C10.3733 47.9733 9.12 46.08 9.12 43.36C9.12 42.1867 9.38667 40.8267 9.92 39.28C10.1867 38.5867 10.8267 38 11.84 37.52C12.8533 36.9867 13.8933 36.6667 14.96 36.56C15.8667 31.3333 17.1733 25.04 18.88 17.68C16.2667 15.8133 14.8533 13.44 14.64 10.56C14.5867 9.6 15.2 8.74666 16.48 8C17.76 7.2 19.0667 6.8 20.4 6.8C22.2133 6.8 23.1467 7.46666 23.2 8.8C23.2533 9.97333 23.7067 11.0667 24.56 12.08C24.8267 12.0267 25.2267 12 25.76 12C27.4667 12 28.2133 12.5867 28 13.76L27.76 14.56C29.36 15.4667 31.2 16.24 33.28 16.88C35.36 17.4667 37.84 18.08 40.72 18.72C43.7067 19.4133 45.6533 19.9467 46.56 20.32Z" fill="#4f46e5"/>
<path d="M30.48 42L30.2975 41.5345L30.2931 41.5362L30.48 42ZM42.48 25.6L42.283 26.0596L42.2911 26.0629L42.48 25.6ZM32.16 22.56L32.2639 22.0709L32.251 22.0682L32.238 22.0661L32.16 22.56ZM28.64 21.76L28.487 22.236L28.496 22.2389L28.5052 22.2415L28.64 21.76ZM26.4 21.04L26.553 20.564L26.0184 20.3921L25.9095 20.9431L26.4 21.04ZM22.24 44.48L21.7456 44.4054L21.6486 45.0488L22.2952 44.9769L22.24 44.48ZM46.56 20.32L46.3696 20.7823L46.3781 20.7858L46.3867 20.789L46.56 20.32ZM52.16 23.84L51.7862 24.1722L51.7931 24.1797L52.16 23.84ZM50.16 36L49.8175 35.6357L49.8175 35.6357L50.16 36ZM37.28 44.72L37.4978 45.1701L37.4998 45.1691L37.28 44.72ZM22.4 49.6L22.3152 49.1072L22.2968 49.1104L22.2787 49.1149L22.4 49.6ZM21.44 49.76V49.26H21.0093L20.9455 49.686L21.44 49.76ZM18.48 74.08L18.9773 74.1323L18.9781 74.1236L18.48 74.08ZM16.24 76.72L16.4771 77.1602L16.24 76.72ZM10.24 77.36L9.96265 77.776L10.24 77.36ZM9.6 75.92L9.10241 75.8702L9.10173 75.8785L9.6 75.92ZM12.88 49.04L13.375 49.1103L13.429 48.7302L13.0758 48.5799L12.88 49.04ZM9.92 39.28L9.45333 39.1005L9.45018 39.1087L9.44731 39.117L9.92 39.28ZM11.84 37.52L12.054 37.9719L12.0636 37.9674L12.0729 37.9625L11.84 37.52ZM14.96 36.56L15.0098 37.0575L15.3877 37.0197L15.4526 36.6455L14.96 36.56ZM18.88 17.68L19.3671 17.7929L19.4426 17.4674L19.1706 17.2731L18.88 17.68ZM14.64 10.56L14.1407 10.5877L14.1414 10.5969L14.64 10.56ZM16.48 8L16.7319 8.43189L16.7385 8.42804L16.745 8.424L16.48 8ZM23.2 8.8L22.7004 8.81998L22.7005 8.8227L23.2 8.8ZM24.56 12.08L24.1775 12.4021L24.368 12.6283L24.6581 12.5703L24.56 12.08ZM28 13.76L28.4789 13.9037L28.4869 13.8769L28.4919 13.8494L28 13.76ZM27.76 14.56L27.2811 14.4163L27.1665 14.7984L27.5135 14.995L27.76 14.56ZM33.28 16.88L33.1329 17.358L33.1443 17.3612L33.28 16.88ZM40.72 18.72L40.8331 18.2329L40.8285 18.2319L40.72 18.72ZM30.6625 42.4655C35.9847 40.3794 40.0111 38.3474 42.7158 36.3631C45.3975 34.3957 46.9 32.3854 46.9 30.32H45.9C45.9 31.8813 44.7492 33.631 42.1242 35.5569C39.5222 37.4659 35.5887 39.4606 30.2975 41.5345L30.6625 42.4655ZM46.9 30.32C46.9 29.1655 46.5339 28.1386 45.8046 27.2605C45.0827 26.3913 44.0242 25.6902 42.6689 25.1371L42.2911 26.0629C43.5491 26.5764 44.4506 27.1954 45.0354 27.8994C45.6128 28.5947 45.9 29.3945 45.9 30.32H46.9ZM42.677 25.1404C40.0223 24.0027 36.5475 22.9812 32.2639 22.0709L32.0561 23.0491C36.3058 23.9521 39.7111 24.9573 42.283 26.0596L42.677 25.1404ZM32.238 22.0661C31.2491 21.91 30.0955 21.6483 28.7748 21.2785L28.5052 22.2415C29.8512 22.6184 31.0442 22.89 32.082 23.0539L32.238 22.0661ZM28.793 21.284L26.553 20.564L26.247 21.516L28.487 22.236L28.793 21.284ZM25.9095 20.9431C24.1485 29.8549 22.7604 37.676 21.7456 44.4054L22.7344 44.5546C23.7463 37.844 25.1315 30.0385 26.8905 21.1369L25.9095 20.9431ZM22.2952 44.9769C24.2858 44.7558 27.0845 43.9074 30.6669 42.4638L30.2931 41.5362C26.7289 42.9726 24.0342 43.7776 22.1848 43.9831L22.2952 44.9769ZM46.3867 20.789C48.7893 21.6769 50.5768 22.8115 51.7863 24.1722L52.5337 23.5078C51.1832 21.9885 49.2374 20.7764 46.7333 19.851L46.3867 20.789ZM51.7931 24.1797C53.0546 25.5421 53.66 26.9982 53.66 28.56H54.66C54.66 26.7085 53.932 25.0179 52.5269 23.5003L51.7931 24.1797ZM53.66 28.56C53.66 30.8197 52.4331 33.177 49.8175 35.6357L50.5025 36.3643C53.2202 33.8096 54.66 31.207 54.66 28.56H53.66ZM49.8175 35.6357C46.2852 38.9571 42.0347 41.8366 37.0602 44.2709L37.4998 45.1691C42.552 42.6968 46.8881 39.7629 50.5025 36.3643L49.8175 35.6357ZM37.0622 44.2699C32.1404 46.6515 27.225 48.2626 22.3152 49.1072L22.4848 50.0928C27.495 49.2308 32.4996 47.5885 37.4978 45.1701L37.0622 44.2699ZM22.2787 49.1149C21.8591 49.2198 21.5888 49.26 21.44 49.26V50.26C21.7179 50.26 22.0875 50.1935 22.5213 50.0851L22.2787 49.1149ZM20.9455 49.686C19.611 58.6006 18.623 66.7176 17.9819 74.0364L18.9781 74.1236C19.617 66.8291 20.6023 58.7328 21.9345 49.834L20.9455 49.686ZM17.9827 74.0277C17.9013 74.8013 17.3268 75.5669 16.003 76.2798L16.4771 77.1602C17.9266 76.3797 18.8454 75.3854 18.9773 74.1323L17.9827 74.0277ZM16.003 76.2798C14.6791 76.9926 13.3733 77.34 12.08 77.34V78.34C13.5601 78.34 15.0275 77.9407 16.4771 77.1602L16.003 76.2798ZM12.08 77.34C11.4033 77.34 10.8942 77.1952 10.5174 76.944L9.96265 77.776C10.5458 78.1648 11.2634 78.34 12.08 78.34V77.34ZM10.5174 76.944C10.2086 76.7381 10.058 76.4452 10.0983 75.9615L9.10173 75.8785C9.03537 76.6748 9.31143 77.3419 9.96265 77.776L10.5174 76.944ZM10.0975 75.9697C10.9501 67.444 12.0426 58.4908 13.375 49.1103L12.385 48.9697C11.0508 58.3625 9.95657 67.3294 9.10248 75.8702L10.0975 75.9697ZM13.0758 48.5799C11.8943 48.0772 11.0395 47.3939 10.4769 46.544C9.91439 45.6942 9.62 44.6416 9.62 43.36H8.62C8.62 44.7984 8.95228 46.0525 9.64307 47.096C10.3338 48.1395 11.359 48.9361 12.6842 49.5001L13.0758 48.5799ZM9.62 43.36C9.62 42.2593 9.87086 40.9563 10.3927 39.443L9.44731 39.117C8.90248 40.697 8.62 42.1141 8.62 43.36H9.62ZM10.3867 39.4595C10.5885 38.9348 11.0989 38.4243 12.054 37.9719L11.626 37.0681C10.5544 37.5757 9.78485 38.2385 9.45333 39.1005L10.3867 39.4595ZM12.0729 37.9625C13.0332 37.457 14.0114 37.1574 15.0098 37.0575L14.9102 36.0625C13.7753 36.176 12.6735 36.5163 11.6071 37.0775L12.0729 37.9625ZM15.4526 36.6455C16.3572 31.4309 17.6617 25.1473 19.3671 17.7929L18.3929 17.5671C16.6849 24.9327 15.3761 31.2357 14.4674 36.4745L15.4526 36.6455ZM19.1706 17.2731C16.6628 15.4818 15.3397 13.2372 15.1386 10.5231L14.1414 10.5969C14.367 13.6428 15.8705 16.1448 18.5894 18.0869L19.1706 17.2731ZM15.1392 10.5323C15.1013 9.8499 15.5176 9.14022 16.7319 8.43189L16.2281 7.56811C14.8824 8.3531 14.072 9.35009 14.1408 10.5877L15.1392 10.5323ZM16.745 8.424C17.9563 7.66693 19.1723 7.3 20.4 7.3V6.3C18.961 6.3 17.5637 6.73306 16.215 7.576L16.745 8.424ZM20.4 7.3C21.2585 7.3 21.8239 7.46009 22.1694 7.70686C22.4889 7.93509 22.6788 8.27919 22.7004 8.81998L23.6996 8.78001C23.6679 7.98747 23.3644 7.33157 22.7506 6.89313C22.1628 6.47324 21.3548 6.3 20.4 6.3V7.3ZM22.7005 8.8227C22.7595 10.1199 23.2628 11.3159 24.1775 12.4021L24.9425 11.7579C24.1505 10.8175 23.7472 9.82676 23.6995 8.77729L22.7005 8.8227ZM24.6581 12.5703C24.8748 12.5269 25.2346 12.5 25.76 12.5V11.5C25.2188 11.5 24.7786 11.5264 24.4619 11.5897L24.6581 12.5703ZM25.76 12.5C26.5803 12.5 27.0525 12.6457 27.2911 12.8332C27.4793 12.981 27.5916 13.2111 27.5081 13.6706L28.4919 13.8494C28.6217 13.1356 28.4674 12.4856 27.9089 12.0468C27.4008 11.6476 26.6463 11.5 25.76 11.5V12.5ZM27.5211 13.6163L27.2811 14.4163L28.2389 14.7037L28.4789 13.9037L27.5211 13.6163ZM27.5135 14.995C29.1501 15.9224 31.0245 16.7091 33.133 17.3579L33.427 16.4021C31.3755 15.7709 29.5699 15.0109 28.0065 14.125L27.5135 14.995ZM33.1443 17.3612C35.2359 17.9512 37.7254 18.5667 40.6115 19.2081L40.8285 18.2319C37.9546 17.5933 35.4841 16.9822 33.4157 16.3988L33.1443 17.3612ZM40.6069 19.207C43.6016 19.9022 45.5073 20.4272 46.3696 20.7823L46.7504 19.8577C45.7994 19.4661 43.8118 18.9244 40.8331 18.2329L40.6069 19.207Z" fill="#4f46e5"/>
<defs>
<filter id="filter0_d" x="0.619995" y="0.299998" width="203.288" height="90.008" filterUnits="userSpaceOnUse" color-interpolation-filters="sRGB">
<feFlood flood-opacity="0" result="BackgroundImageFix"/>
<feColorMatrix in="SourceAlpha" type="matrix" values="0 0 0 0 0 0 0 0 0 0 0 0 0 0 0 0 0 0 127 0" result="hardAlpha"/>
<feOffset dy="2"/>
<feGaussianBlur stdDeviation="4"/>
<feComposite in2="hardAlpha" operator="out"/>
<feColorMatrix type="matrix" values="0 0 0 0 0 0 0 0 0 0 0 0 0 0 0 0 0 0 0.25 0"/>
<feBlend mode="normal" in2="BackgroundImageFix" result="effect1_dropShadow"/>
<feBlend mode="normal" in="SourceGraphic" in2="effect1_dropShadow" result="shape"/>
</filter>
<linearGradient id="paint0_linear" x1="7.80325e-08" y1="78" x2="204" y2="78" gradientUnits="userSpaceOnUse">
<stop stop-color="#4f46e5" stop-opacity="0.15"/>
<stop offset="1" stop-color="#4f46e5"/>
</linearGradient>
</defs>
</svg>
