<svg width="64" height="64" viewBox="0 0 64 64" fill="none" xmlns="http://www.w3.org/2000/svg">
<g clip-path="url(#clip0)">
<path d="M54.985 10.6209H21.8929H7.03276H0.0635137V45.1653C0.0631387 45.1819 0.0631387 45.1985 0.0635137 45.215C0.111014 46.9709 0.830389 48.614 2.08914 49.8416C3.35051 51.072 5.01576 51.7495 6.77814 51.7495H54.9849C55.5044 51.7495 55.9253 51.3285 55.9253 50.8091V11.5613C55.9254 11.0419 55.5044 10.6209 54.985 10.6209Z" fill="#A8EEFC"/>
<path d="M54.985 10.6209H21.8929H7.03276H0.0635137V45.1653C0.0631387 45.1819 0.0631387 45.1985 0.0635137 45.215C0.111014 46.9709 0.830389 48.614 2.08914 49.8416C3.35051 51.072 5.01576 51.7495 6.77814 51.7495H54.9849C55.5044 51.7495 55.9253 51.3285 55.9253 50.8091V11.5613C55.9254 11.0419 55.5044 10.6209 54.985 10.6209Z" fill="#A8EEFC"/>
<path d="M54.9851 47.4758H6.77823C5.01585 47.4758 3.3506 46.7981 2.08923 45.5679C0.830605 44.3401 0.111229 42.6971 0.0637295 40.9413C0.0632295 40.9248 0.0632295 40.908 0.0637295 40.8914V45.1655C0.0633545 45.1821 0.0633545 45.1988 0.0637295 45.2153C0.111229 46.9711 0.830605 48.6143 2.08935 49.8419C3.35073 51.0723 5.01598 51.7498 6.77835 51.7498H54.9852C55.5047 51.7498 55.9256 51.3288 55.9256 50.8094V46.5354C55.9255 47.0548 55.5045 47.4758 54.9851 47.4758Z" fill="#7EE5F2"/>
<path d="M16.4842 10.9484C16.3057 10.728 16.0372 10.5999 15.7535 10.5999H6.97358C6.4542 10.5999 6.0332 11.0209 6.0332 11.5402V20.7287C6.0332 20.9817 6.1352 21.2241 6.31608 21.401C6.49195 21.573 6.72808 21.6691 6.97358 21.6691C6.98045 21.6691 6.98733 21.669 6.99445 21.6689C10.144 21.5991 12.8252 19.8302 14.7483 16.5535C16.1466 14.1712 16.6527 11.8336 16.6735 11.7354C16.7322 11.4579 16.6627 11.1687 16.4842 10.9484Z" fill="#4CE166"/>
<path d="M0.004 44.9361C0.004 41.1846 3.04525 38.1434 6.79675 38.1434C7.17737 38.1434 7.55025 38.1763 7.91388 38.2364V1.96738C7.91388 1.44801 7.49287 1.02701 6.9735 1.02701C3.12837 1.02688 0 4.15538 0 8.00063V45.3275C0 45.415 0.012875 45.4993 0.03525 45.5796C0.01525 45.3676 0.004 45.1533 0.004 44.9361Z" fill="#546F7A"/>
<path d="M55.46 10.9556C55.2817 10.7307 55.0104 10.5999 54.7235 10.5999H34.0183C33.8442 10.5999 33.6734 10.6482 33.525 10.7395C32.1939 11.5594 31.3068 12.1714 30.8127 12.6105C30.3538 13.0184 30.12 13.5707 30.1545 14.1657C30.1959 14.8817 30.6378 15.5946 31.1605 16.1976C28.9327 16.434 25.5943 17.0355 23.5852 18.5617C22.0912 19.6967 21.549 20.7385 21.9737 21.658C22.6 23.0146 24.9352 23.1131 30.0332 21.9976C32.2823 21.5056 33.7799 21.6497 34.6407 21.8575C35.6405 22.0986 36.1728 22.5116 36.3374 22.8177C36.4157 22.9631 36.3818 22.996 36.3257 23.0507C35.745 23.6162 33.2089 24.0475 28.8515 23.7362C26.822 23.5914 25.9957 24.5166 24.9514 25.6882C24.5312 26.1599 24.0548 26.6944 23.3942 27.311C21.7768 28.8205 21.9013 30.1495 22.1195 30.8074C22.6272 32.3381 24.5099 33.359 27.421 33.682C31.2347 34.105 31.8394 36.2832 31.9627 37.8849C32.0418 38.9135 31.7434 39.4397 31.3302 40.1681C31.0708 40.6252 30.7768 41.1436 30.5749 41.8165C30.2674 42.8412 30.2657 44.1022 30.57 45.1895C30.956 46.5684 31.8123 47.6249 32.981 48.1642C33.3814 48.3491 33.7874 48.4297 34.1919 48.4296C36.2978 48.4295 38.3582 46.2449 39.3274 45.2171C39.4224 45.1162 39.5043 45.0292 39.5712 44.961C40.2018 44.3176 40.4072 43.0602 40.6702 41.066C40.7787 40.2436 40.9017 39.3116 41.046 38.9746C41.2817 38.425 43.0003 36.8267 44.4575 35.6614C44.6689 35.4922 44.7973 35.2401 44.8097 34.9695C44.822 34.6989 44.717 34.4362 44.5218 34.2485C44.5069 34.2344 43.0242 32.8056 41.7209 31.1785C39.5815 28.5075 39.8522 27.7346 39.8562 27.7284C40.2107 27.1966 40.4732 27.1706 40.5593 27.1621C41.5589 27.0609 43.5959 29.1015 44.2657 29.7712C44.5292 30.0345 45.1153 30.4409 46.0849 30.2036C48.0364 29.726 50.6919 26.705 51.5708 23.9706C53.3423 19.7031 54.8248 15.252 55.6395 11.7531C55.7043 11.4741 55.6384 11.1804 55.46 10.9556Z" fill="#4CE166"/>
<path d="M21.0194 22.0783C20.7308 21.4045 20.2833 20.9473 19.6891 20.7196C18.4938 20.2612 17.1221 20.8957 15.7958 21.5096C15.5171 21.6386 15.254 21.7603 14.9944 21.8716C12.6538 22.8745 11.0713 26.8353 12.0751 29.1787C12.363 29.8506 12.8168 30.3125 13.4239 30.551C13.7404 30.6753 14.0703 30.7286 14.4099 30.7286C15.4529 30.7286 16.5861 30.2262 17.6909 29.7363C17.8823 29.6515 18.0716 29.5675 18.257 29.4881C20.5543 28.5038 22.0514 24.4875 21.0194 22.0783Z" fill="#4CE166"/>
<path d="M32.4144 50.4661C32.39 50.399 31.7994 48.8075 30.3859 47.2721C28.4825 45.2047 25.9935 44.2078 23.1873 44.3888C20.2823 44.5767 19.645 44.0147 18.9703 43.4201C18.0781 42.6338 17.2116 42.0465 14.8928 42.225C9.88176 42.6102 6.04176 50.0455 5.88064 50.3619C5.73226 50.6534 5.74601 51.0011 5.91701 51.28C6.08801 51.5589 6.39164 51.7289 6.71876 51.7289H31.531C31.838 51.7289 32.1256 51.579 32.3015 51.3275C32.4775 51.076 32.5196 50.7544 32.4144 50.4661Z" fill="#4CE166"/>
<path d="M30.5496 47.4547H7.69225C6.60363 48.96 5.9455 50.2347 5.881 50.3617C5.73263 50.6532 5.74638 51.001 5.91738 51.2799C6.08838 51.5587 6.392 51.7287 6.71913 51.7287H31.5313C31.8383 51.7287 32.1259 51.5789 32.3018 51.3274C32.4776 51.0759 32.5198 50.7544 32.4146 50.466C32.3911 50.4017 31.845 48.9312 30.5496 47.4547Z" fill="#44C868"/>
<path d="M55.3273 50.3614L52.7179 47.752C52.5263 47.5603 52.2614 47.4598 51.9906 47.4786C51.7201 47.4965 51.4706 47.6304 51.3059 47.8456C50.9564 48.3025 50.5743 48.7393 50.1699 49.1436C49.7659 49.5477 49.3291 49.9299 48.8718 50.2796C48.6565 50.4442 48.5226 50.6939 48.5048 50.9644C48.4868 51.2349 48.5864 51.4999 48.7783 51.6915L51.3879 54.3009C51.5714 54.4846 51.8121 54.5764 52.0528 54.5764C52.2934 54.5764 52.5341 54.4846 52.7178 54.3009L55.3274 51.6912C55.6945 51.3239 55.6945 50.7285 55.3273 50.3614Z" fill="#475D63"/>
<path d="M51.5036 29.577C45.7423 23.8159 36.3683 23.8159 30.6069 29.577C27.8162 32.3678 26.2791 36.0784 26.2791 40.0253C26.2791 43.9721 27.8161 47.6826 30.6069 50.4734C33.3977 53.2641 37.1083 54.8013 41.0552 54.8013C45.0021 54.8013 48.7126 53.2643 51.5034 50.4734C54.2942 47.6826 55.8312 43.9721 55.8312 40.0253C55.8314 36.0783 54.2944 32.3678 51.5036 29.577Z" fill="#546F7A"/>
<path d="M43.8562 52.0004C39.9093 52.0004 36.1988 50.4634 33.4079 47.6725C30.6172 44.8817 29.08 41.1711 29.08 37.2244C29.08 33.9474 30.1406 30.8336 32.0978 28.2736C31.5793 28.6695 31.0808 29.1032 30.607 29.577C27.8163 32.3677 26.2792 36.0784 26.2792 40.0252C26.2792 43.9721 27.8162 47.6826 30.607 50.4734C33.3978 53.2641 37.1084 54.8012 41.0553 54.8012C45.0022 54.8012 48.7127 53.2642 51.5036 50.4734C51.9761 50.0009 52.4115 49.5016 52.8108 48.9797C50.25 50.9387 47.1348 52.0004 43.8562 52.0004Z" fill="#475D63"/>
<path d="M41.0939 29.0756C35.0825 29.0756 30.1918 33.9662 30.1918 39.9777C30.1918 45.9891 35.0824 50.8797 41.0939 50.8797C47.1054 50.8797 51.9959 45.9891 51.9959 39.9777C51.9959 33.9661 47.1054 29.0756 41.0939 29.0756Z" fill="#A8EEFC"/>
<path d="M33.5703 47.8604C34.7162 48.9546 36.0996 49.8019 37.6342 50.3166L51.4104 36.4513C50.8949 34.9474 50.0597 33.5906 48.9857 32.4631L33.5703 47.8604Z" fill="#C2F8FF"/>
<path d="M31.5706 45.2791C31.8824 45.8371 32.2416 46.365 32.6431 46.8574L48.0002 31.5485C47.5031 31.1405 46.9692 30.7759 46.4047 30.4596L31.5706 45.2791Z" fill="#C2F8FF"/>
<path d="M62.9121 56.6235L55.9886 49.7C55.6212 49.3327 55.0259 49.3327 54.6586 49.7L50.7267 53.6319C50.3595 53.9991 50.3595 54.5946 50.7267 54.9618L57.6504 61.8853C58.3757 62.6105 59.3285 62.9731 60.2812 62.9731C61.2339 62.9731 62.1867 62.6105 62.9121 61.8853H62.9122C64.3629 60.4348 64.3629 58.0743 62.9121 56.6235Z" fill="#FF4A4A"/>
<path d="M62.6406 60.0866C61.6879 60.0866 60.7351 59.724 60.0097 58.9987L52.684 51.6747L50.7266 53.6131C50.3594 53.9804 50.3594 54.5759 50.7266 54.943L57.6502 61.8665C58.3756 62.5917 59.3284 62.9544 60.2811 62.9544C61.2337 62.9544 62.1866 62.5917 62.912 61.8665H62.9121C63.481 61.2976 63.8256 60.5887 63.9484 59.8499C63.5275 60.0069 63.0842 60.0866 62.6406 60.0866Z" fill="#E7343F"/>
<path d="M4.32575 38.6089V1.55051C1.79012 2.59538 0 5.09238 0 8.00063V45.3275C0 45.415 0.012875 45.4993 0.03525 45.5796C0.015375 45.3678 0.004 45.1534 0.004 44.9361C0.004 42.0568 1.7965 39.5976 4.32575 38.6089Z" fill="#475D63"/>
</g>
<defs>
<clipPath id="clip0">
<rect width="64" height="64" fill="white"/>
</clipPath>
</defs>
</svg>
