<svg width="64" height="64" viewBox="0 0 64 64" fill="none" xmlns="http://www.w3.org/2000/svg">
<g clip-path="url(#clip0)">
<path d="M63.9851 59.4606L58.9571 31.7592C58.907 31.4827 58.7355 31.2432 58.4897 31.1066L45.8344 24.0679C45.6702 23.9764 45.4861 23.94 45.3052 23.954L47.6076 53.655L47.5304 53.6895L62.676 60.4841C62.7992 60.5392 62.9302 60.5665 63.0606 60.5665C63.267 60.5665 63.4715 60.4986 63.6396 60.367C63.9144 60.1525 64.0472 59.8035 63.9851 59.4606Z" fill="#44C868"/>
<path d="M32 30.7969L19.0568 24.0555C18.9017 23.9746 18.7297 23.9416 18.5603 23.953C18.6052 23.9502 18.6503 23.9505 18.6951 23.954L16.3927 53.655L31.6153 60.4842C31.7382 60.5392 31.8693 60.5666 32 60.5666V30.7969Z" fill="#44C868"/>
<path d="M18.6949 23.9541C18.514 23.9401 18.3299 23.9765 18.1656 24.0679L5.51025 31.1066C5.2645 31.2432 5.093 31.4826 5.04287 31.7592L0.0149877 59.4606C-0.0472625 59.8033 0.0857378 60.1523 0.360363 60.3671C0.528739 60.4987 0.733114 60.5666 0.939364 60.5666C1.06974 60.5666 1.20087 60.5395 1.32399 60.4842L16.387 53.7266L18.6949 23.9541Z" fill="#4CE166"/>
<path d="M45.3048 23.9535C45.1803 23.9631 45.0572 23.9962 44.943 24.0557L31.9999 30.797V60.5667C31.9999 60.5667 31.9999 60.5667 32 60.5667C32.1306 60.5667 32.2619 60.5395 32.3846 60.4843L47.6073 53.6551L45.3048 23.9535Z" fill="#4CE166"/>
<path d="M3.51918 40.1541L2.4978 45.7815L17.6221 37.7932L17.9732 33.2634L18.0315 32.5121L3.51918 40.1541Z" fill="#FFDB56"/>
<path d="M17.7581 36.0367L17.622 37.7932L2.49774 45.7815L0.0149877 59.4606C-0.0472625 59.8034 0.0857378 60.1524 0.360363 60.3671C0.528739 60.4987 0.733114 60.5666 0.939364 60.5666C1.06974 60.5666 1.20087 60.5395 1.32399 60.4842L16.387 53.7266L17.7581 36.0367Z" fill="#A8EEFC"/>
<path d="M32.0037 34.51L18.0314 32.5121L17.6221 37.7933L32 59.6281V51.6884L23.4203 38.1786L32.0037 39.2053V34.51Z" fill="#FFBB24"/>
<path d="M57.4932 30.5526L51.4138 27.1713L45.6586 28.516L45.7306 29.4455L46.0148 33.1123L57.4932 30.5526Z" fill="#FFBB24"/>
<path d="M46.5253 39.697L45.9803 32.6659L45.6587 28.516L32.0038 34.51V39.2052L40.9233 35.3265L46.5253 39.697Z" fill="#FFDB56"/>
<path d="M63.9851 59.4606L62.7222 52.5024L46.015 33.1122L46.5255 39.697L63.6593 60.3496C63.9198 60.1337 64.0457 59.7947 63.9851 59.4606Z" fill="#FFBB24"/>
<path d="M32.0602 3.43314C24.8148 3.43314 18.9202 9.32289 18.9202 16.5624C18.9202 21.0406 21.0463 25.8486 25.2397 30.8526C28.3196 34.528 31.3576 36.8919 31.4854 36.9908C31.6547 37.1216 31.8574 37.187 32.0603 37.187C32.2631 37.187 32.4659 37.1216 32.6352 36.9908C32.7629 36.8919 35.8011 34.528 38.8809 30.8526C43.0743 25.8486 45.2005 21.0408 45.2005 16.5624C45.2002 9.32289 39.3056 3.43314 32.0602 3.43314ZM36.9264 16.5623C36.9264 19.2475 34.7477 21.4245 32.0602 21.4245C29.3727 21.4245 27.1939 19.2476 27.1939 16.5623C27.1939 13.8769 29.3727 11.7 32.0602 11.7C34.7477 11.7 36.9264 13.877 36.9264 16.5623Z" fill="#FF4A4A"/>
<path d="M32.0604 3.43314C31.4861 3.43314 30.9205 3.47039 30.3655 3.54214C36.8134 4.37551 41.8108 9.89664 41.8108 16.5624C41.8108 21.0406 39.6846 25.8486 35.4912 30.8526C33.5106 33.2161 31.5487 35.036 30.3656 36.0613C31.0224 36.6303 31.4401 36.9555 31.4856 36.9908C31.6549 37.1216 31.8576 37.187 32.0605 37.187C32.2632 37.187 32.4661 37.1216 32.6354 36.9908C32.7631 36.8919 35.8012 34.528 38.8811 30.8526C43.0745 25.8486 45.2007 21.0408 45.2007 16.5624C45.2004 9.32289 39.3058 3.43314 32.0604 3.43314Z" fill="#E7343F"/>
<path d="M32.3849 60.4843L38.0455 57.9448L32.0001 51.6884V60.5666C32.0001 60.5666 32.0001 60.5666 32.0002 60.5666C32.1309 60.5666 32.262 60.5395 32.3849 60.4843Z" fill="#FFDB56"/>
<path d="M58.957 31.7592C58.9069 31.4827 58.7354 31.2432 58.4897 31.1066L57.4934 30.5525L46.015 33.1121L62.7221 52.5022L58.957 31.7592Z" fill="#1EA4E9"/>
<path d="M32.0001 60.5666C32.0002 60.5666 32.0002 60.5666 32.0001 60.5666V59.6281L17.6223 37.7932L16.3927 53.6551L31.6154 60.4843C31.7382 60.5395 31.8694 60.5666 32.0001 60.5666Z" fill="#1EA4E9"/>
</g>
<defs>
<clipPath id="clip0">
<rect width="64" height="63.9999" fill="white"/>
</clipPath>
</defs>
</svg>
