<svg width="64" height="64" viewBox="0 0 64 64" fill="none" xmlns="http://www.w3.org/2000/svg">
<path d="M25 10H13C11.9391 10 10.9217 10.4214 10.1716 11.1716C9.42143 11.9217 9 12.9391 9 14V38C9 39.0609 9.42143 40.0783 10.1716 40.8284C10.9217 41.5786 11.9391 42 13 42H25C26.0609 42 27.0783 41.5786 27.8284 40.8284C28.5786 40.0783 29 39.0609 29 38V14C29 12.9391 28.5786 11.9217 27.8284 11.1716C27.0783 10.4214 26.0609 10 25 10Z" fill="#5AAAE7"/>
<path d="M51.1299 2.90002C48.5798 1.97139 45.8255 1.752 43.1606 2.26525C40.4956 2.77849 38.0198 4.00514 35.997 5.81447C33.9742 7.6238 32.4802 9.94803 31.6742 12.5395C30.8681 15.131 30.7802 17.8926 31.4199 20.53L28.9999 23.36L26.7699 25.97L28.9999 25.95L33.9299 25.9C35.3192 27.7836 37.1301 29.3159 39.2176 30.3744C41.3051 31.4329 43.6114 31.9882 45.9519 31.996C48.2925 32.0037 50.6023 31.4635 52.6968 30.4188C54.7912 29.3741 56.6121 27.8537 58.0138 25.9793C59.4156 24.1049 60.3592 21.9285 60.7693 19.6242C61.1794 17.3198 61.0445 14.9515 60.3755 12.7086C59.7065 10.4657 58.5219 8.41046 56.9165 6.70729C55.3111 5.00412 53.3294 3.70027 51.1299 2.90002Z" fill="#00CCB3"/>
<path d="M55 18L53 14L52 12H51V8H45V12H44L41 18C40.4701 18.0016 39.9623 18.2128 39.5875 18.5875C39.2128 18.9623 39.0016 19.4701 39 20V22C39.0016 22.5299 39.2128 23.0377 39.5875 23.4125C39.9623 23.7872 40.4701 23.9984 41 24V27C41 27.2652 41.1054 27.5196 41.2929 27.7071C41.4804 27.8946 41.7348 28 42 28H44C44.2652 28 44.5196 27.8946 44.7071 27.7071C44.8946 27.5196 45 27.2652 45 27V24H51V27C51 27.2652 51.1054 27.5196 51.2929 27.7071C51.4804 27.8946 51.7348 28 52 28H54C54.2652 28 54.5196 27.8946 54.7071 27.7071C54.8946 27.5196 55 27.2652 55 27V24C55.5299 23.9984 56.0377 23.7872 56.4125 23.4125C56.7872 23.0377 56.9984 22.5299 57 22V20C56.9984 19.4701 56.7872 18.9623 56.4125 18.5875C56.0377 18.2128 55.5299 18.0016 55 18Z" fill="#00B39D"/>
<path d="M53.8999 16.447L52.1099 15.553L53.1099 13.553C53.1925 13.3875 53.3195 13.2482 53.4766 13.1506C53.6338 13.053 53.8149 13.0008 53.9999 13H55.9999V15H54.6179L53.8999 16.447Z" fill="#EBBF00"/>
<path d="M38.1 16.447L37.382 15H36V13H38C38.1867 12.999 38.3699 13.0503 38.529 13.148C38.688 13.2457 38.8166 13.386 38.9 13.553L39.9 15.553L38.1 16.447Z" fill="#EBBF00"/>
<path d="M19.6099 37H21.9999V39H19.6099V37Z" fill="#3D9AE2"/>
<path d="M17 53V61H3V53H5H15H17Z" fill="#3D9AE2"/>
<path d="M53 22V25C53 25.2652 52.8946 25.5196 52.7071 25.7071C52.5196 25.8946 52.2652 26 52 26H50C49.7348 26 49.4804 25.8946 49.2929 25.7071C49.1054 25.5196 49 25.2652 49 25V22H53Z" fill="#57565C"/>
<path d="M43 6H49V10H43V6Z" fill="#EBBF00"/>
<path d="M43 22V25C43 25.2652 42.8946 25.5196 42.7071 25.7071C42.5196 25.8946 42.2652 26 42 26H40C39.7348 26 39.4804 25.8946 39.2929 25.7071C39.1054 25.5196 39 25.2652 39 25V22H43Z" fill="#57565C"/>
<path d="M53 16H39C37.8954 16 37 16.8954 37 18V20C37 21.1046 37.8954 22 39 22H53C54.1046 22 55 21.1046 55 20V18C55 16.8954 54.1046 16 53 16Z" fill="#FFD422"/>
<path d="M39 22H43V24H39V22Z" fill="#3E3D42"/>
<path d="M49 22H53V24H49V22Z" fill="#3E3D42"/>
<path d="M53 16H39L42 10H50L53 16Z" fill="#E6E7E8"/>
<path d="M53 16H47L51 12L53 16Z" fill="#E0E0E2"/>
<path d="M16 13H22V15H16V13Z" fill="#3D9AE2"/>
<path d="M14 19H16V21H14V19Z" fill="#1E81CE"/>
<path d="M18 19H24V21H18V19Z" fill="#1E81CE"/>
<path d="M14 23H24V25H14V23Z" fill="#1E81CE"/>
<path d="M14 27H24V29H14V27Z" fill="#1E81CE"/>
<path d="M40 18H42V20H40V18Z" fill="#FF9811"/>
<path d="M50 18H52V20H50V18Z" fill="#FF9811"/>
<path d="M18.66 33.82C18.4059 33.752 18.1409 33.7349 17.8801 33.7695C17.6194 33.8041 17.368 33.8898 17.1404 34.0217C16.9128 34.1536 16.7135 34.3291 16.5539 34.5382C16.3942 34.7472 16.2774 34.9857 16.21 35.24L15.05 39.54C14.9372 39.9626 14.6876 40.336 14.3403 40.6019C13.993 40.8678 13.5674 41.0113 13.13 41.01H13.11C12.7708 41.009 12.4378 40.92 12.1433 40.7518C11.8488 40.5835 11.603 40.3417 11.43 40.05L9 36V27C7.40871 27 5.88258 27.6321 4.75736 28.7574C3.63215 29.8826 3 31.4087 3 33V44.53C2.99938 44.839 3.07131 45.1438 3.21 45.42L5 49V53H15V51L18 47V44.79C18.0012 44.267 18.0684 43.7462 18.2 43.24L18.53 42L19.61 38L20.07 36.27C20.1178 36.1008 20.1413 35.9258 20.14 35.75C20.1397 35.3104 19.9946 34.8831 19.7271 34.5342C19.4596 34.1853 19.0845 33.9343 18.66 33.82Z" fill="#FFC477"/>
</svg>
