<svg width="64" height="64" viewBox="0 0 64 64" fill="none" xmlns="http://www.w3.org/2000/svg">
<g clip-path="url(#clip0)">
<path d="M24.5 30.1249H17H9.5C4.33087 30.1249 0 34.3308 0 39.4999V43.2499L3.75825 50.7089L3.75 62.1249C3.75 63.1613 4.58862 63.9999 5.625 63.9999H13.25L17 59.568L33.875 39.4999C33.875 34.3308 29.6691 30.1249 24.5 30.1249Z" fill="#FF6673"/>
<path d="M7.5 46.9999V43.2499C7.5 42.2144 6.6605 41.3749 5.625 41.3749H1.875C0.8395 41.3749 0 42.2144 0 43.2499V46.9999C0 52.1775 4.32237 56.3749 9.5 56.3749H22.625V48.8749H9.5C8.4645 48.8749 7.5 48.0354 7.5 46.9999Z" fill="#FFEBDC"/>
<path d="M24.5 30.1249H17V59.568L33.875 39.4999C33.875 34.3308 29.6691 30.1249 24.5 30.1249Z" fill="#E62E2E"/>
<path d="M37.2717 38.4031C36.9183 37.9141 36.3524 37.6249 35.75 37.6249H20.75C19.9425 37.6249 19.2265 38.1413 18.972 38.9066L11.472 61.5316C11.2798 62.1029 11.3768 62.7328 11.7284 63.2218C12.0818 63.7106 12.6476 63.9999 13.25 63.9999H28.25C29.0575 63.9999 29.7735 63.4835 30.028 62.7181L37.528 40.0931C37.7203 39.52 37.6232 38.892 37.2717 38.4031Z" fill="#4D6699"/>
<path d="M28.9712 37.6249L20.228 63.9999H28.25C29.0575 63.9999 29.7735 63.4835 30.028 62.7181L37.528 40.0931C37.7203 39.52 37.6233 38.892 37.2717 38.403C36.9183 37.9141 36.3524 37.6249 35.75 37.6249H28.9712Z" fill="#404B80"/>
<path d="M33.875 54.4999H32C30.9645 54.4999 30.125 53.6604 30.125 52.6249V48.8749C30.125 47.8394 30.9645 46.9999 32 46.9999H33.875C35.9461 46.9999 37.625 48.6788 37.625 50.7499C37.625 52.821 35.9461 54.4999 33.875 54.4999Z" fill="#FFD2C8"/>
<path d="M58.375 -0.00012207H47H35.75C32.6483 -0.00012207 30.125 2.52313 30.125 5.62488V20.7499C30.125 23.8516 32.6483 26.3749 35.75 26.3749H37.625V31.9999C37.625 32.7579 38.0809 33.4428 38.7822 33.732C39.4739 34.0206 40.2851 33.8659 40.8257 33.3255L47 27.1513L47.7764 26.3749H58.375C61.4767 26.3749 64 23.8516 64 20.7499V5.62488C64 2.52313 61.4767 -0.00012207 58.375 -0.00012207V-0.00012207Z" fill="#7ED96C"/>
<path d="M58.375 26.3749C61.4767 26.3749 64 23.8516 64 20.7499V5.62488C64 2.52313 61.4767 -0.00012207 58.375 -0.00012207H47V27.1513L47.7764 26.3749H58.375Z" fill="#48B348"/>
<path d="M52.0757 10.0493C51.3433 9.31691 50.1567 9.31691 49.4243 10.0493L47 12.4735L45.125 14.3485L43.6382 12.8617C42.9058 12.1293 41.7192 12.1293 40.9868 12.8617C40.2544 13.594 40.2544 14.7807 40.9868 15.513L43.7993 18.3255C44.1655 18.6918 44.6453 18.8749 45.1249 18.8749C45.6045 18.8749 46.0844 18.6918 46.4505 18.3255L46.9999 17.7762L52.0755 12.7005C52.8082 11.9682 52.8082 10.7817 52.0757 10.0493Z" fill="#F9F4F3"/>
<path d="M52.0756 10.0493C51.3433 9.31691 50.1566 9.31691 49.4243 10.0493L47 12.4735V17.7763L52.0756 12.7007C52.8081 11.9682 52.8081 10.7817 52.0756 10.0493Z" fill="#F0E6E1"/>
<path d="M17 30.1249C22.1777 30.1249 26.375 25.9275 26.375 20.7499C26.375 15.5722 22.1777 11.3749 17 11.3749C11.8223 11.3749 7.625 15.5722 7.625 20.7499C7.625 25.9275 11.8223 30.1249 17 30.1249Z" fill="#FFEBDC"/>
<path d="M26.375 20.7499C26.375 15.5808 22.1691 11.3749 17 11.3749V30.1249C22.1691 30.1249 26.375 25.919 26.375 20.7499Z" fill="#FFD2C8"/>
</g>
<defs>
<clipPath id="clip0">
<rect width="64" height="64" fill="white" transform="translate(0 -0.00012207)"/>
</clipPath>
</defs>
</svg>
