<svg width="64" height="64" viewBox="0 0 64 64" fill="none" xmlns="http://www.w3.org/2000/svg">
<g clip-path="url(#clip0)">
<path d="M52.7151 12.2327C52.4724 12.2327 52.2299 12.1402 52.0448 11.955C51.6747 11.5849 51.6747 10.9848 52.0448 10.6147L62.3819 0.277533C62.7521 -0.0925923 63.3522 -0.0925923 63.7223 0.277533C64.0924 0.647658 64.0924 1.24778 63.7223 1.61791L53.3852 11.955C53.2003 12.1402 52.9577 12.2327 52.7151 12.2327Z" fill="#B8F0FF"/>
<path d="M53.1478 16.8519L47.1478 10.8519L51.2443 7.87689C51.7939 7.47777 52.5521 7.53752 53.0324 8.01777L55.9818 10.9671C56.4621 11.4474 56.5218 12.2056 56.1227 12.7553L53.1478 16.8519Z" fill="#BAC5E2"/>
<path d="M13.8378 56.974L8.48267 51.4883L16.364 43.2562L21.2995 49.5123L13.8378 56.974Z" fill="#E9EFFF"/>
<path d="M25.7024 45.1095L18.8904 38.2975L7.02588 50.162L8.62263 51.7588L15.5149 44.8665C15.8294 44.552 16.3394 44.552 16.6539 44.8665C16.9684 45.181 16.9684 45.691 16.6539 46.0055L9.689 52.9704C9.31888 53.3405 9.31888 53.9407 9.689 54.3108C9.874 54.4958 10.1166 54.5884 10.3593 54.5884C10.6019 54.5884 10.8444 54.4959 11.0295 54.3108L17.2346 48.1057C17.9688 47.3715 19.159 47.3715 19.8931 48.1057L21.2998 49.5123L25.7024 45.1095Z" fill="#D3DCFB"/>
<path d="M46.6305 10.0649C45.1477 8.58216 43.4045 9.76504 41.9217 11.2478L31.9128 22.6215L32.0487 23.3682L43.1275 27.5349L54.2552 23.3149L54.893 22.6772C56.3757 21.1944 56.3757 18.7904 54.893 17.3077L48.5848 10.9995L46.6305 10.0649Z" fill="#E9EFFF"/>
<path d="M28.4322 25.5029L17.3964 34.2944L30.336 47.2341L34.3139 43.2562L34.1799 41.6841L35.6542 41.9158L38.1457 39.4243L38.0886 37.9478L39.4861 38.0839L41.9922 35.5778L42.1206 34.3423L43.3326 34.2374L54.255 23.3151L32.0485 23.3683L28.4322 25.5029Z" fill="#42C3FC"/>
<path d="M46.6922 9.10706C45.2094 7.62431 42.8054 7.62431 41.3227 9.10706L27.0614 23.3683L28.445 24.5649L32.0487 23.3683L43.8163 11.6007C45.299 10.1179 47.703 10.1179 49.1858 11.6007L46.6922 9.10706Z" fill="#D3DCFB"/>
<path d="M19.2595 36.1574L32.0486 23.3683H27.0614L16.7659 33.6638L19.2595 36.1574Z" fill="#1AA9E8"/>
<path d="M17.4383 59.1017L7.33391 48.9974C6.46329 48.1268 3.91729 47.1594 3.04666 48.0299L1.95404 49.1226C1.08341 49.9932 2.30904 52.4631 3.17954 53.3337L13.1929 63.3471C14.0635 64.2177 15.475 64.2177 16.3455 63.3471L17.4382 62.2544C18.3089 61.3838 18.3089 59.9723 17.4383 59.1017Z" fill="#BAC5E2"/>
<path d="M3.7521 49.9216L4.01297 49.6607C5.11322 48.5604 6.8971 48.5604 7.99735 49.6607L4.8981 46.5614C4.02747 45.6909 2.61597 45.6909 1.74547 46.5614L0.652847 47.6541C-0.217778 48.5247 -0.217778 49.9362 0.652847 50.8067L3.7521 53.9059C2.65185 52.8057 2.65185 51.0218 3.7521 49.9216Z" fill="#A7B4D1"/>
<path d="M34.2409 48.9525L17.6252 32.3368L14.9506 30.5681C13.9406 29.5581 13.4432 29.8918 12.4332 30.9018L11.5385 31.6904C10.5285 32.7004 9.73983 32.7276 10.75 33.7376L12.791 37.3531L29.3157 53.8779C30.3257 54.8879 31.9633 54.8879 32.9734 53.8779L34.2411 52.6103C35.2509 51.6001 35.2509 49.9625 34.2409 48.9525Z" fill="#BAC5E2"/>
<path d="M13.2879 33.2273L13.5905 32.9247C14.8669 31.6483 16.9364 31.6482 18.2129 32.9244L15.0474 29.7589C14.0374 28.7489 12.3998 28.7489 11.3896 29.7589L10.122 31.0265C9.112 32.0365 9.112 33.6742 10.122 34.6843L13.2879 37.8502C12.0114 36.5734 12.0114 34.5038 13.2879 33.2273Z" fill="#A7B4D1"/>
<path d="M40.4462 31.3598C40.0761 30.9897 39.476 30.9897 39.1058 31.3598C38.7357 31.7299 38.7357 32.3301 39.1058 32.7002L41.9923 35.5778L43.3327 34.2374L40.4462 31.3598Z" fill="#1C8AE5"/>
<path d="M36.6039 35.2018C36.2338 34.8317 35.6337 34.8317 35.2636 35.2018C34.8934 35.5719 34.8934 36.172 35.2636 36.5422L38.1457 39.4243L39.486 38.0839L36.6039 35.2018Z" fill="#1C8AE5"/>
<path d="M32.762 39.044C32.3919 38.6738 31.7918 38.6738 31.4216 39.044C31.0515 39.4141 31.0515 40.0142 31.4216 40.3843L34.3139 43.2562L35.6543 41.9158L32.762 39.044Z" fill="#1C8AE5"/>
</g>
<defs>
<clipPath id="clip0">
<rect width="64" height="64" fill="white" transform="translate(0 -0.00012207)"/>
</clipPath>
</defs>
</svg>
